<?xml version="1.0" encoding="UTF-8"?>
<!DOCTYPE svg PUBLIC "-//W3C//DTD SVG 1.1//EN" "http://www.w3.org/Graphics/SVG/1.1/DTD/svg11.dtd">
<svg xmlns="http://www.w3.org/2000/svg" version="1.1" width="424px" height="437px" style="shape-rendering:geometricPrecision; text-rendering:geometricPrecision; image-rendering:optimizeQuality; fill-rule:evenodd; clip-rule:evenodd" xmlns:xlink="http://www.w3.org/1999/xlink">
<g><path style="opacity:0.678" fill="#a999b9" d="M 207.5,43.5 C 208.793,42.8418 210.293,42.5085 212,42.5C 214.544,42.336 216.71,43.0027 218.5,44.5C 217.508,44.3284 216.842,44.6618 216.5,45.5C 215.833,45.5 215.5,45.1667 215.5,44.5C 213.052,43.5269 210.385,43.1936 207.5,43.5 Z"/></g>
<g><path style="opacity:1" fill="#926980" d="M 195.5,43.5 C 196.82,44.9418 198.486,45.6085 200.5,45.5C 199.64,47.2879 198.64,48.9545 197.5,50.5C 197.579,49.0695 197.246,47.7362 196.5,46.5C 194.257,45.5258 191.924,45.1924 189.5,45.5C 191.5,44.8333 193.5,44.1667 195.5,43.5 Z"/></g>
<g><path style="opacity:1" fill="#886185" d="M 251.5,45.5 C 250.694,46.7281 249.694,47.7281 248.5,48.5C 245.448,45.0205 242.114,44.6872 238.5,47.5C 237.791,46.596 236.791,46.2627 235.5,46.5C 235.5,46.1667 235.5,45.8333 235.5,45.5C 237.91,44.6114 240.41,43.9448 243,43.5C 245.881,44.0278 248.715,44.6945 251.5,45.5 Z"/></g>
<g><path style="opacity:1" fill="#703a5f" d="M 195.5,43.5 C 193.5,44.1667 191.5,44.8333 189.5,45.5C 188.508,45.3284 187.842,45.6618 187.5,46.5C 186.662,46.8417 186.328,47.5084 186.5,48.5C 183.777,51.1785 184.111,53.6785 187.5,56C 190.741,56.7931 193.741,56.2931 196.5,54.5C 197.167,54.8333 197.833,55.1667 198.5,55.5C 197.833,56.1667 197.167,56.8333 196.5,57.5C 194.015,58.7399 194.015,59.7399 196.5,60.5C 197.462,64.0039 197.129,67.3373 195.5,70.5C 196.401,66.7593 195.068,64.7593 191.5,64.5C 191.5,63.1667 191.5,61.8333 191.5,60.5C 191.5,60.1667 191.5,59.8333 191.5,59.5C 192.043,59.44 192.376,59.1067 192.5,58.5C 190.157,57.7251 187.823,57.0584 185.5,56.5C 184.542,56.0472 183.708,55.3805 183,54.5C 179.995,57.8488 177.495,61.5155 175.5,65.5C 174.317,66.5045 172.984,67.3378 171.5,68C 171.728,68.3988 172.062,68.5654 172.5,68.5C 170.167,69.8333 167.833,69.8333 165.5,68.5C 163.875,65.149 161.375,64.4823 158,66.5C 152.703,65.8641 150.369,62.8641 151,57.5C 150.617,58.056 150.117,58.3893 149.5,58.5C 149.5,57.8333 149.5,57.1667 149.5,56.5C 152.601,52.1361 156.268,48.3027 160.5,45C 165.267,44.8959 169.934,44.7293 174.5,44.5C 176.527,44.3379 178.527,44.5045 180.5,45C 178.618,45.1981 176.952,45.6981 175.5,46.5C 173.413,47.5846 172.08,49.2512 171.5,51.5C 166.491,55.1986 164.491,60.1986 165.5,66.5C 172.5,66.1786 176.833,62.5119 178.5,55.5C 181.137,53.5182 182.47,50.8515 182.5,47.5C 183.5,46.8333 184.5,46.1667 185.5,45.5C 186.058,44.2101 187.058,43.3768 188.5,43C 191.039,42.2042 193.372,42.3709 195.5,43.5 Z"/></g>
<g><path style="opacity:0.839" fill="#a77f9d" d="M 174.5,44.5 C 175.449,43.8476 176.615,43.5143 178,43.5C 180.59,43.9448 183.09,44.6114 185.5,45.5C 184.5,46.1667 183.5,46.8333 182.5,47.5C 180.283,46.6314 177.95,46.298 175.5,46.5C 176.952,45.6981 178.618,45.1981 180.5,45C 178.527,44.5045 176.527,44.3379 174.5,44.5 Z"/></g>
<g><path style="opacity:1" fill="#4d3c5e" d="M 207.5,43.5 C 210.385,43.1936 213.052,43.5269 215.5,44.5C 212.15,44.335 208.817,44.5017 205.5,45C 204.263,45.2321 203.263,45.7321 202.5,46.5C 200.654,48.0301 199.654,50.0301 199.5,52.5C 198.167,53.1667 198.167,53.8333 199.5,54.5C 199.5,55.1667 199.167,55.5 198.5,55.5C 197.833,55.1667 197.167,54.8333 196.5,54.5C 196.833,53.1667 197.167,51.8333 197.5,50.5C 198.64,48.9545 199.64,47.2879 200.5,45.5C 202.479,43.8325 204.812,43.1658 207.5,43.5 Z"/></g>
<g><path style="opacity:0.996" fill="#90c0ab" d="M 215.5,44.5 C 215.5,45.1667 215.833,45.5 216.5,45.5C 218.5,45.5 219.5,46.5 219.5,48.5C 216.497,47.6346 213.497,46.6346 210.5,45.5C 207.86,46.0951 205.193,46.4285 202.5,46.5C 203.263,45.7321 204.263,45.2321 205.5,45C 208.817,44.5017 212.15,44.335 215.5,44.5 Z"/></g>
<g><path style="opacity:0.996" fill="#f5b9a2" d="M 234.5,47.5 C 237.722,52.9812 236.055,55.9812 229.5,56.5C 224.602,55.0422 222.769,51.7088 224,46.5C 227.976,43.5309 231.476,43.8642 234.5,47.5 Z"/></g>
<g><path style="opacity:0.992" fill="#5d3966" d="M 235.5,45.5 C 235.5,45.8333 235.5,46.1667 235.5,46.5C 235.5,47.1667 235.167,47.5 234.5,47.5C 231.476,43.8642 227.976,43.5309 224,46.5C 222.769,51.7088 224.602,55.0422 229.5,56.5C 229.5,56.8333 229.5,57.1667 229.5,57.5C 228.662,57.8417 228.328,58.5084 228.5,59.5C 226.313,58.242 223.98,57.242 221.5,56.5C 221.5,55.8333 221.5,55.1667 221.5,54.5C 222.648,52.0852 221.982,50.0852 219.5,48.5C 219.5,46.5 218.5,45.5 216.5,45.5C 216.842,44.6618 217.508,44.3284 218.5,44.5C 219.458,44.9528 220.292,45.6195 221,46.5C 223.385,44.2241 226.219,42.8908 229.5,42.5C 232.102,42.4672 234.102,43.4672 235.5,45.5 Z"/></g>
<g><path style="opacity:0.996" fill="#f0b6aa" d="M 175.5,46.5 C 177.95,46.298 180.283,46.6314 182.5,47.5C 182.47,50.8515 181.137,53.5182 178.5,55.5C 179.167,52.8333 179.833,50.1667 180.5,47.5C 178.801,47.3398 177.134,47.5065 175.5,48C 174.295,49.3756 172.962,50.5423 171.5,51.5C 172.08,49.2512 173.413,47.5846 175.5,46.5 Z"/></g>
<g><path style="opacity:0.996" fill="#fbc096" d="M 187.5,46.5 C 190.247,46.1866 192.914,46.52 195.5,47.5C 195.931,48.2935 196.265,49.1268 196.5,50C 195.293,51.3002 194.626,52.8002 194.5,54.5C 192.143,54.6633 189.81,54.4966 187.5,54C 186.594,52.3005 186.261,50.4672 186.5,48.5C 186.328,47.5084 186.662,46.8417 187.5,46.5 Z"/></g>
<g><path style="opacity:0.996" fill="#8be5a9" d="M 219.5,48.5 C 219.678,49.6948 220.011,50.8615 220.5,52C 220.164,53.0299 219.497,53.5299 218.5,53.5C 212.986,52.8335 207.319,52.1668 201.5,51.5C 202.309,49.9291 202.643,48.2624 202.5,46.5C 205.193,46.4285 207.86,46.0951 210.5,45.5C 213.497,46.6346 216.497,47.6346 219.5,48.5 Z"/></g>
<g><path style="opacity:0.996" fill="#f4b9a6" d="M 248.5,48.5 C 249.11,49.391 249.443,50.391 249.5,51.5C 248.542,51.0472 247.708,50.3805 247,49.5C 242.823,55.8029 244.323,60.1363 251.5,62.5C 250.41,63.6086 250.41,64.6086 251.5,65.5C 253.167,65.1667 254.167,64.1667 254.5,62.5C 253.844,60.5466 253.511,58.5466 253.5,56.5C 254.222,56.9175 254.722,57.5842 255,58.5C 255.497,61.146 255.664,63.8127 255.5,66.5C 253.076,66.8076 250.743,66.4742 248.5,65.5C 244.087,59.9982 240.753,53.9982 238.5,47.5C 242.114,44.6872 245.448,45.0205 248.5,48.5 Z"/></g>
<g><path style="opacity:0.996" fill="#9cd8b7" d="M 202.5,46.5 C 202.643,48.2624 202.309,49.9291 201.5,51.5C 207.319,52.1668 212.986,52.8335 218.5,53.5C 211.978,53.8235 205.645,53.4902 199.5,52.5C 199.654,50.0301 200.654,48.0301 202.5,46.5 Z"/></g>
<g><path style="opacity:0.996" fill="#7d9f99" d="M 219.5,48.5 C 221.982,50.0852 222.648,52.0852 221.5,54.5C 214.167,54.5 206.833,54.5 199.5,54.5C 198.167,53.8333 198.167,53.1667 199.5,52.5C 205.645,53.4902 211.978,53.8235 218.5,53.5C 219.497,53.5299 220.164,53.0299 220.5,52C 220.011,50.8615 219.678,49.6948 219.5,48.5 Z"/></g>
<g><path style="opacity:0.996" fill="#eeb0ae" d="M 187.5,46.5 C 187.842,45.6618 188.508,45.3284 189.5,45.5C 191.924,45.1924 194.257,45.5258 196.5,46.5C 197.246,47.7362 197.579,49.0695 197.5,50.5C 197.167,51.8333 196.833,53.1667 196.5,54.5C 193.741,56.2931 190.741,56.7931 187.5,56C 184.111,53.6785 183.777,51.1785 186.5,48.5C 186.261,50.4672 186.594,52.3005 187.5,54C 189.81,54.4966 192.143,54.6633 194.5,54.5C 194.626,52.8002 195.293,51.3002 196.5,50C 196.265,49.1268 195.931,48.2935 195.5,47.5C 192.914,46.52 190.247,46.1866 187.5,46.5 Z"/></g>
<g><path style="opacity:0.996" fill="#2d3c4e" d="M 199.5,54.5 C 206.833,54.5 214.167,54.5 221.5,54.5C 221.5,55.1667 221.5,55.8333 221.5,56.5C 212.989,54.8817 204.656,55.215 196.5,57.5C 197.167,56.8333 197.833,56.1667 198.5,55.5C 199.167,55.5 199.5,55.1667 199.5,54.5 Z"/></g>
<g><path style="opacity:0.996" fill="#f7bb9d" d="M 161.5,46.5 C 163.92,46.2924 166.253,46.6258 168.5,47.5C 169.614,48.723 169.781,50.0563 169,51.5C 166.137,55.6876 163.303,59.8543 160.5,64C 155.057,65.873 152.557,64.0397 153,58.5C 154.952,53.7398 157.786,49.7398 161.5,46.5 Z"/></g>
<g><path style="opacity:0.996" fill="#bf829a" d="M 185.5,56.5 C 187.823,57.0584 190.157,57.7251 192.5,58.5C 192.376,59.1067 192.043,59.44 191.5,59.5C 189.156,59.0603 187.156,58.0603 185.5,56.5 Z"/></g>
<g><path style="opacity:0.992" fill="#97c9b6" d="M 221.5,56.5 C 215.062,58.1502 208.395,59.1502 201.5,59.5C 199.708,59.366 198.042,59.6993 196.5,60.5C 194.015,59.7399 194.015,58.7399 196.5,57.5C 204.656,55.215 212.989,54.8817 221.5,56.5 Z"/></g>
<g><path style="opacity:0.996" fill="#e7a8a9" d="M 241.5,59.5 C 240.2,58.8921 238.867,58.2255 237.5,57.5C 235.098,59.049 232.432,59.7157 229.5,59.5C 229.167,59.5 228.833,59.5 228.5,59.5C 228.328,58.5084 228.662,57.8417 229.5,57.5C 233.355,58.1546 236.188,56.8212 238,53.5C 239.947,55.0634 241.114,57.0634 241.5,59.5 Z"/></g>
<g><path style="opacity:0.992" fill="#85979a" d="M 221.5,56.5 C 223.98,57.242 226.313,58.242 228.5,59.5C 228.833,59.5 229.167,59.5 229.5,59.5C 229.5,59.8333 229.5,60.1667 229.5,60.5C 220.191,59.683 210.857,59.3496 201.5,59.5C 208.395,59.1502 215.062,58.1502 221.5,56.5 Z"/></g>
<g><path style="opacity:0.996" fill="#f8bd9d" d="M 241.5,59.5 C 243.456,62.5389 245.79,65.3722 248.5,68C 244.833,70 241.167,70 237.5,68C 234.474,65.6947 231.807,63.1947 229.5,60.5C 229.5,60.1667 229.5,59.8333 229.5,59.5C 232.432,59.7157 235.098,59.049 237.5,57.5C 238.867,58.2255 240.2,58.8921 241.5,59.5 Z"/></g>
<g><path style="opacity:0.996" fill="#fabf9d" d="M 185.5,56.5 C 187.156,58.0603 189.156,59.0603 191.5,59.5C 191.5,59.8333 191.5,60.1667 191.5,60.5C 190.596,61.209 190.263,62.209 190.5,63.5C 188.486,63.3915 186.82,64.0582 185.5,65.5C 182.452,67.2925 179.118,68.2925 175.5,68.5C 175.5,67.5 175.5,66.5 175.5,65.5C 177.495,61.5155 179.995,57.8488 183,54.5C 183.708,55.3805 184.542,56.0472 185.5,56.5 Z"/></g>
<g><path style="opacity:0.996" fill="#4b1667" d="M 201.5,59.5 C 210.857,59.3496 220.191,59.683 229.5,60.5C 229.715,62.1788 229.048,63.1788 227.5,63.5C 226.542,63.0472 225.708,62.3805 225,61.5C 224.667,61.8333 224.333,62.1667 224,62.5C 224,64.5 224,66.5 224,68.5C 222.117,67.3474 221.284,65.6807 221.5,63.5C 214.313,63.1755 207.313,63.5088 200.5,64.5C 200.5,65.5 200.5,66.5 200.5,67.5C 199.5,67.5 198.5,67.5 197.5,67.5C 197.614,69.7179 198.28,71.7179 199.5,73.5C 199.167,73.5 198.833,73.5 198.5,73.5C 197.5,72.8333 196.5,72.1667 195.5,71.5C 195.5,71.1667 195.5,70.8333 195.5,70.5C 197.129,67.3373 197.462,64.0039 196.5,60.5C 198.042,59.6993 199.708,59.366 201.5,59.5 Z"/></g>
<g><path style="opacity:0.996" fill="#f8be9d" d="M 178.5,55.5 C 176.833,62.5119 172.5,66.1786 165.5,66.5C 164.491,60.1986 166.491,55.1986 171.5,51.5C 172.962,50.5423 174.295,49.3756 175.5,48C 177.134,47.5065 178.801,47.3398 180.5,47.5C 179.833,50.1667 179.167,52.8333 178.5,55.5 Z"/></g>
<g><path style="opacity:0.996" fill="#783b5a" d="M 285.5,74.5 C 285.5,74.8333 285.5,75.1667 285.5,75.5C 285.167,75.5 284.833,75.5 284.5,75.5C 281.368,68.6892 276.702,63.0226 270.5,58.5C 269.868,61.0614 268.868,63.3948 267.5,65.5C 264.13,67.0591 260.964,66.7258 258,64.5C 257.535,65.9308 256.701,67.0975 255.5,68C 258.131,69.3267 260.798,70.6601 263.5,72C 265.007,72.8373 265.507,74.0039 265,75.5C 262.603,73.2177 259.769,71.8844 256.5,71.5C 254.735,70.5386 252.735,70.2053 250.5,70.5C 243.043,71.9685 236.71,70.1351 231.5,65C 230.207,64.51 228.873,64.3433 227.5,64.5C 227.5,64.1667 227.5,63.8333 227.5,63.5C 229.048,63.1788 229.715,62.1788 229.5,60.5C 231.807,63.1947 234.474,65.6947 237.5,68C 241.167,70 244.833,70 248.5,68C 245.79,65.3722 243.456,62.5389 241.5,59.5C 241.114,57.0634 239.947,55.0634 238,53.5C 236.188,56.8212 233.355,58.1546 229.5,57.5C 229.5,57.1667 229.5,56.8333 229.5,56.5C 236.055,55.9812 237.722,52.9812 234.5,47.5C 235.167,47.5 235.5,47.1667 235.5,46.5C 236.791,46.2627 237.791,46.596 238.5,47.5C 240.753,53.9982 244.087,59.9982 248.5,65.5C 250.743,66.4742 253.076,66.8076 255.5,66.5C 255.664,63.8127 255.497,61.146 255,58.5C 254.722,57.5842 254.222,56.9175 253.5,56.5C 252.876,54.246 251.543,52.5794 249.5,51.5C 249.443,50.391 249.11,49.391 248.5,48.5C 249.694,47.7281 250.694,46.7281 251.5,45.5C 255.208,44.0863 258.875,44.253 262.5,46C 268.663,53.1624 275.163,59.9957 282,66.5C 283.396,69.0639 284.563,71.7305 285.5,74.5 Z"/></g>
<g><path style="opacity:0.996" fill="#fbbf98" d="M 249.5,51.5 C 251.543,52.5794 252.876,54.246 253.5,56.5C 253.511,58.5466 253.844,60.5466 254.5,62.5C 254.167,64.1667 253.167,65.1667 251.5,65.5C 250.41,64.6086 250.41,63.6086 251.5,62.5C 244.323,60.1363 242.823,55.8029 247,49.5C 247.708,50.3805 248.542,51.0472 249.5,51.5 Z"/></g>
<g><path style="opacity:0.996" fill="#f5b9a0" d="M 263.5,51.5 C 262.518,50.8592 261.518,50.1925 260.5,49.5C 259.723,51.7767 258.723,53.9434 257.5,56C 258.222,58.6774 259.222,61.1774 260.5,63.5C 256.931,59.2314 253.931,54.398 251.5,49C 253.651,46.6353 256.317,45.9686 259.5,47C 261.751,47.7475 263.084,49.2475 263.5,51.5 Z"/></g>
<g><path style="opacity:0.996" fill="#fac296" d="M 263.5,51.5 C 263.643,53.2624 263.309,54.9291 262.5,56.5C 263.397,56.6691 264.397,57.0024 265.5,57.5C 266.309,59.0709 266.643,60.7376 266.5,62.5C 264.435,62.5172 262.435,62.8505 260.5,63.5C 259.222,61.1774 258.222,58.6774 257.5,56C 258.723,53.9434 259.723,51.7767 260.5,49.5C 261.518,50.1925 262.518,50.8592 263.5,51.5 Z"/></g>
<g><path style="opacity:0.996" fill="#e7aaa6" d="M 263.5,51.5 C 265.916,53.9903 267.582,56.9903 268.5,60.5C 268.41,62.4251 267.41,63.5917 265.5,64C 263.613,64.7796 261.946,64.6129 260.5,63.5C 262.435,62.8505 264.435,62.5172 266.5,62.5C 266.643,60.7376 266.309,59.0709 265.5,57.5C 264.397,57.0024 263.397,56.6691 262.5,56.5C 263.309,54.9291 263.643,53.2624 263.5,51.5 Z"/></g>
<g><path style="opacity:1" fill="#7c5373" d="M 149.5,56.5 C 149.5,57.1667 149.5,57.8333 149.5,58.5C 145.377,62.282 142.043,66.6153 139.5,71.5C 137.132,73.9557 136.132,76.9557 136.5,80.5C 134.886,82.0746 132.886,82.7413 130.5,82.5C 131.568,81.5655 132.901,81.2322 134.5,81.5C 135.635,70.9052 140.635,62.5719 149.5,56.5 Z"/></g>
<g><path style="opacity:0.996" fill="#f4b8a2" d="M 165.5,68.5 C 162.774,68.2639 160.441,69.0972 158.5,71C 156.671,72.1133 155.837,73.6133 156,75.5C 157.678,73.3341 159.845,72.0007 162.5,71.5C 161.206,73.3284 160.206,75.3284 159.5,77.5C 156.951,77.6126 154.618,76.9459 152.5,75.5C 149.891,76.2305 147.224,76.7305 144.5,77C 142.393,78.2635 141.393,80.0968 141.5,82.5C 145.846,82.3343 150.179,82.501 154.5,83C 155.056,83.3826 155.389,83.8826 155.5,84.5C 150.141,84.3303 144.808,83.8303 139.5,83C 138.058,82.6232 137.058,81.7899 136.5,80.5C 136.132,76.9557 137.132,73.9557 139.5,71.5C 142.043,66.6153 145.377,62.282 149.5,58.5C 150.117,58.3893 150.617,58.056 151,57.5C 150.369,62.8641 152.703,65.8641 158,66.5C 161.375,64.4823 163.875,65.149 165.5,68.5 Z"/></g>
<g><path style="opacity:0.996" fill="#dc9ba4" d="M 175.5,65.5 C 175.5,66.5 175.5,67.5 175.5,68.5C 179.118,68.2925 182.452,67.2925 185.5,65.5C 184.657,67.1733 183.324,68.34 181.5,69C 178.445,69.6342 175.445,69.4675 172.5,68.5C 172.062,68.5654 171.728,68.3988 171.5,68C 172.984,67.3378 174.317,66.5045 175.5,65.5 Z"/></g>
<g><path style="opacity:0.996" fill="#f3b6ae" d="M 191.5,64.5 C 195.068,64.7593 196.401,66.7593 195.5,70.5C 195.5,70.8333 195.5,71.1667 195.5,71.5C 192.571,76.0994 188.904,80.0994 184.5,83.5C 186.056,80.2637 188.056,77.2637 190.5,74.5C 191.429,73.3112 191.762,71.9778 191.5,70.5C 192.5,70.5 193.5,70.5 194.5,70.5C 194.5,69.1667 194.5,67.8333 194.5,66.5C 191.794,66.5751 189.127,66.9084 186.5,67.5C 187.965,66.2632 189.632,65.2632 191.5,64.5 Z"/></g>
<g><path style="opacity:0.996" fill="#fcc194" d="M 139.5,71.5 C 141.339,70.4923 142.672,68.9923 143.5,67C 145.421,66.6397 147.088,65.8064 148.5,64.5C 149.207,68.0236 151.207,70.5236 154.5,72C 150.733,73.8376 146.733,74.8376 142.5,75C 141.624,76.586 140.624,78.086 139.5,79.5C 138.795,76.911 138.795,74.2443 139.5,71.5 Z"/></g>
<g><path style="opacity:0.996" fill="#894860" d="M 191.5,60.5 C 191.5,61.8333 191.5,63.1667 191.5,64.5C 189.632,65.2632 187.965,66.2632 186.5,67.5C 185.317,68.5045 183.984,69.3378 182.5,70C 175.785,70.2429 169.119,70.7429 162.5,71.5C 159.845,72.0007 157.678,73.3341 156,75.5C 155.837,73.6133 156.671,72.1133 158.5,71C 160.441,69.0972 162.774,68.2639 165.5,68.5C 167.833,69.8333 170.167,69.8333 172.5,68.5C 175.445,69.4675 178.445,69.6342 181.5,69C 183.324,68.34 184.657,67.1733 185.5,65.5C 186.82,64.0582 188.486,63.3915 190.5,63.5C 190.263,62.209 190.596,61.209 191.5,60.5 Z"/></g>
<g><path style="opacity:0.996" fill="#f7bba1" d="M 227.5,64.5 C 228.873,64.3433 230.207,64.51 231.5,65C 236.71,70.1351 243.043,71.9685 250.5,70.5C 244.885,74.6138 239.552,74.1138 234.5,69C 233.365,68.2506 232.365,68.4173 231.5,69.5C 234.014,71.8679 234.014,74.2012 231.5,76.5C 232.274,77.7112 233.107,77.7112 234,76.5C 234.384,79.0602 235.217,81.3936 236.5,83.5C 233.14,80.8062 230.14,77.8062 227.5,74.5C 225,70.9825 225,67.6491 227.5,64.5 Z"/></g>
<g><path style="opacity:0.996" fill="#6d3866" d="M 227.5,63.5 C 227.5,63.8333 227.5,64.1667 227.5,64.5C 225,67.6491 225,70.9825 227.5,74.5C 226.833,74.5 226.167,74.5 225.5,74.5C 223.912,72.2542 222.578,72.5876 221.5,75.5C 220.5,76.1667 219.5,76.8333 218.5,77.5C 220.278,73.4347 220.945,69.1014 220.5,64.5C 213.833,64.5 207.167,64.5 200.5,64.5C 207.313,63.5088 214.313,63.1755 221.5,63.5C 221.284,65.6807 222.117,67.3474 224,68.5C 224,66.5 224,64.5 224,62.5C 224.333,62.1667 224.667,61.8333 225,61.5C 225.708,62.3805 226.542,63.0472 227.5,63.5 Z"/></g>
<g><path style="opacity:0.99" fill="#f5daf5" d="M 225.5,74.5 C 224.432,75.4345 223.099,75.7678 221.5,75.5C 222.578,72.5876 223.912,72.2542 225.5,74.5 Z"/></g>
<g><path style="opacity:0.996" fill="#f7bba2" d="M 200.5,64.5 C 207.167,64.5 213.833,64.5 220.5,64.5C 220.945,69.1014 220.278,73.4347 218.5,77.5C 217.833,77.5 217.167,77.5 216.5,77.5C 215.713,79.1042 214.38,79.7709 212.5,79.5C 208.567,80.1426 205.234,79.1426 202.5,76.5C 202.167,75.8333 201.833,75.1667 201.5,74.5C 200.631,72.283 200.298,69.9496 200.5,67.5C 200.5,66.5 200.5,65.5 200.5,64.5 Z"/></g>
<g><path style="opacity:0.996" fill="#6c283b" d="M 206.5,69.5 C 209.268,70.4127 211.934,70.746 214.5,70.5C 213.167,70.8333 211.833,71.1667 210.5,71.5C 208.667,71.4146 207.334,70.7479 206.5,69.5 Z"/></g>
<g><path style="opacity:0.996" fill="#fac192" d="M 216.5,77.5 C 212.642,78.9449 208.975,78.6116 205.5,76.5C 206.391,75.4104 207.391,75.4104 208.5,76.5C 209.386,75.675 209.719,74.675 209.5,73.5C 211.942,73.1192 212.609,73.7859 211.5,75.5C 212.365,76.5827 213.365,76.7494 214.5,76C 215.554,73.6178 216.221,71.1178 216.5,68.5C 213.428,68.8174 210.428,68.4841 207.5,67.5C 211.107,66.5108 214.774,66.1774 218.5,66.5C 218.369,70.285 217.702,73.9517 216.5,77.5 Z"/></g>
<g><path style="opacity:0.996" fill="#fdc196" d="M 250.5,70.5 C 252.735,70.2053 254.735,70.5386 256.5,71.5C 256.897,73.6621 258.231,74.9954 260.5,75.5C 260.291,76.086 259.957,76.586 259.5,77C 261.167,77.3333 262.833,77.6667 264.5,78C 263.237,79.7051 262.903,81.3718 263.5,83C 259.367,82.9064 255.701,83.7397 252.5,85.5C 249.492,85.7009 246.492,86.0343 243.5,86.5C 240.891,86.5587 238.557,85.892 236.5,84.5C 236.5,84.1667 236.5,83.8333 236.5,83.5C 235.217,81.3936 234.384,79.0602 234,76.5C 233.107,77.7112 232.274,77.7112 231.5,76.5C 234.014,74.2012 234.014,71.8679 231.5,69.5C 232.365,68.4173 233.365,68.2506 234.5,69C 239.552,74.1138 244.885,74.6138 250.5,70.5 Z"/></g>
<g><path style="opacity:0.455" fill="#caaacd" d="M 285.5,74.5 C 285.917,77.1589 286.917,79.4922 288.5,81.5C 287.791,82.404 286.791,82.7373 285.5,82.5C 285.5,80.1667 285.5,77.8333 285.5,75.5C 285.5,75.1667 285.5,74.8333 285.5,74.5 Z"/></g>
<g><path style="opacity:0.996" fill="#6a2468" d="M 201.5,74.5 C 201.833,75.1667 202.167,75.8333 202.5,76.5C 202.5,77.1667 202.5,77.8333 202.5,78.5C 202.166,81.188 202.832,83.5214 204.5,85.5C 202.448,86.0527 202.115,87.0527 203.5,88.5C 203.953,89.4584 204.619,90.2917 205.5,91C 208.146,91.4974 210.813,91.6641 213.5,91.5C 214.167,91.5 214.833,91.5 215.5,91.5C 208.872,95.2361 204.039,93.5694 201,86.5C 200.502,83.5184 200.335,80.5184 200.5,77.5C 198.167,77.5 195.833,77.5 193.5,77.5C 196.305,76.9348 198.972,75.9348 201.5,74.5 Z"/></g>
<g><path style="opacity:0.996" fill="#7d3a56" d="M 202.5,76.5 C 205.234,79.1426 208.567,80.1426 212.5,79.5C 212.821,81.0481 213.821,81.7148 215.5,81.5C 210.877,82.4384 206.544,81.4384 202.5,78.5C 202.5,77.8333 202.5,77.1667 202.5,76.5 Z"/></g>
<g><path style="opacity:0.996" fill="#f8bc9f" d="M 284.5,75.5 C 284.702,77.9496 284.369,80.283 283.5,82.5C 274.842,83.6203 266.176,84.6203 257.5,85.5C 255.833,85.5 254.167,85.5 252.5,85.5C 255.701,83.7397 259.367,82.9064 263.5,83C 262.903,81.3718 263.237,79.7051 264.5,78C 262.833,77.6667 261.167,77.3333 259.5,77C 259.957,76.586 260.291,76.086 260.5,75.5C 258.231,74.9954 256.897,73.6621 256.5,71.5C 259.769,71.8844 262.603,73.2177 265,75.5C 265.507,74.0039 265.007,72.8373 263.5,72C 260.798,70.6601 258.131,69.3267 255.5,68C 256.701,67.0975 257.535,65.9308 258,64.5C 260.964,66.7258 264.13,67.0591 267.5,65.5C 268.868,63.3948 269.868,61.0614 270.5,58.5C 276.702,63.0226 281.368,68.6892 284.5,75.5 Z"/></g>
<g><path style="opacity:0.996" fill="#fcc195" d="M 267.5,65.5 C 269.394,64.9524 271.06,63.9524 272.5,62.5C 275.127,64.0839 275.127,65.7505 272.5,67.5C 272.833,67.8333 273.167,68.1667 273.5,68.5C 274.5,67.8333 275.5,67.1667 276.5,66.5C 276.833,67 277.167,67.5 277.5,68C 276.704,69.0921 276.037,70.2588 275.5,71.5C 276.326,73.6381 277.326,75.8048 278.5,78C 278.415,79.1074 278.081,80.1074 277.5,81C 274.183,81.4983 270.85,81.665 267.5,81.5C 267.38,79.2655 267.713,77.0989 268.5,75C 268.241,73.7387 267.574,72.7387 266.5,72C 268.167,71.6667 269.833,71.3333 271.5,71C 268.574,70.313 267.241,68.4797 267.5,65.5 Z"/></g>
<g><path style="opacity:0.996" fill="#fcc197" d="M 184.5,83.5 C 184.5,83.8333 184.5,84.1667 184.5,84.5C 182.002,85.627 179.336,86.2937 176.5,86.5C 170.241,85.1075 163.908,84.4408 157.5,84.5C 156.833,84.5 156.167,84.5 155.5,84.5C 155.389,83.8826 155.056,83.3826 154.5,83C 150.179,82.501 145.846,82.3343 141.5,82.5C 141.393,80.0968 142.393,78.2635 144.5,77C 147.224,76.7305 149.891,76.2305 152.5,75.5C 154.618,76.9459 156.951,77.6126 159.5,77.5C 160.206,75.3284 161.206,73.3284 162.5,71.5C 169.119,70.7429 175.785,70.2429 182.5,70C 183.984,69.3378 185.317,68.5045 186.5,67.5C 189.127,66.9084 191.794,66.5751 194.5,66.5C 194.5,67.8333 194.5,69.1667 194.5,70.5C 193.5,70.5 192.5,70.5 191.5,70.5C 191.762,71.9778 191.429,73.3112 190.5,74.5C 188.056,77.2637 186.056,80.2637 184.5,83.5 Z"/></g>
<g><path style="opacity:0.996" fill="#7c3366" d="M 200.5,67.5 C 200.298,69.9496 200.631,72.283 201.5,74.5C 198.972,75.9348 196.305,76.9348 193.5,77.5C 189.806,80.5271 186.473,83.8604 183.5,87.5C 182.833,87.5 182.167,87.5 181.5,87.5C 182.694,86.7281 183.694,85.7281 184.5,84.5C 184.5,84.1667 184.5,83.8333 184.5,83.5C 188.904,80.0994 192.571,76.0994 195.5,71.5C 196.5,72.1667 197.5,72.8333 198.5,73.5C 197.325,73.281 196.325,73.6143 195.5,74.5C 196.167,74.8333 196.833,75.1667 197.5,75.5C 198.713,75.2528 199.38,74.5862 199.5,73.5C 198.28,71.7179 197.614,69.7179 197.5,67.5C 198.5,67.5 199.5,67.5 200.5,67.5 Z"/></g>
<g><path style="opacity:0.996" fill="#f8dff7" d="M 198.5,73.5 C 198.833,73.5 199.167,73.5 199.5,73.5C 199.38,74.5862 198.713,75.2528 197.5,75.5C 196.833,75.1667 196.167,74.8333 195.5,74.5C 196.325,73.6143 197.325,73.281 198.5,73.5 Z"/></g>
<g><path style="opacity:0.996" fill="#76215e" d="M 136.5,80.5 C 137.058,81.7899 138.058,82.6232 139.5,83C 144.808,83.8303 150.141,84.3303 155.5,84.5C 156.167,84.5 156.833,84.5 157.5,84.5C 164.558,86.5614 171.891,87.5614 179.5,87.5C 179.167,88.1667 178.833,88.8333 178.5,89.5C 163.834,87.5739 149.168,85.5739 134.5,83.5C 133.075,83.6233 131.742,83.9566 130.5,84.5C 130.5,83.8333 130.5,83.1667 130.5,82.5C 132.886,82.7413 134.886,82.0746 136.5,80.5 Z"/></g>
<g><path style="opacity:0.997" fill="#f573d6" d="M 193.5,77.5 C 195.833,77.5 198.167,77.5 200.5,77.5C 200.335,80.5184 200.502,83.5184 201,86.5C 204.039,93.5694 208.872,95.2361 215.5,91.5C 217.404,91.2624 218.738,90.2624 219.5,88.5C 220.344,84.9009 220.677,81.2343 220.5,77.5C 223.187,77.3359 225.854,77.5026 228.5,78C 231.754,80.7468 234.42,83.9135 236.5,87.5C 235.22,88.9313 233.553,89.5979 231.5,89.5C 233.978,97.803 236.478,106.136 239,114.5C 243.409,125.897 247.909,137.23 252.5,148.5C 250.495,145.202 247.995,142.202 245,139.5C 244.899,136.3 244.232,133.3 243,130.5C 241.465,135.139 241.132,139.806 242,144.5C 241.586,144.957 241.086,145.291 240.5,145.5C 239.73,143.728 238.397,142.728 236.5,142.5C 234.865,143.046 233.199,143.38 231.5,143.5C 232.306,146.285 232.972,149.119 233.5,152C 232.713,154.811 231.88,157.644 231,160.5C 227.871,161.13 224.704,161.796 221.5,162.5C 222.833,163.62 223.333,164.953 223,166.5C 221.601,165.773 220.101,165.273 218.5,165C 219.423,162.959 219.756,160.792 219.5,158.5C 218.5,158.5 217.5,158.5 216.5,158.5C 216.759,160.989 215.759,162.656 213.5,163.5C 214.013,160.088 214.847,156.755 216,153.5C 220.234,160.55 225.234,161.217 231,155.5C 231.667,153.167 231.667,150.833 231,148.5C 229.692,146.359 228.192,144.359 226.5,142.5C 229.785,141.676 233.118,141.176 236.5,141C 241.342,137.306 241.675,133.306 237.5,129C 234.182,128.121 230.848,127.287 227.5,126.5C 230.062,124.141 232.228,121.474 234,118.5C 234.448,111.625 231.282,109.125 224.5,111C 222.359,112.308 220.359,113.808 218.5,115.5C 218.317,110.968 216.651,107.135 213.5,104C 211.5,103.333 209.5,103.333 207.5,104C 206.944,104.383 206.611,104.883 206.5,105.5C 204.629,105.859 203.129,106.859 202,108.5C 201.667,111.5 201.333,114.5 201,117.5C 198.926,115.548 196.759,113.715 194.5,112C 187.185,109.681 183.685,112.181 184,119.5C 185.644,122.311 187.81,124.644 190.5,126.5C 187.893,127.318 185.226,127.818 182.5,128C 181.944,128.383 181.611,128.883 181.5,129.5C 179.116,130.425 178.116,132.258 178.5,135C 178.32,137.802 179.32,139.969 181.5,141.5C 180.325,141.719 179.325,141.386 178.5,140.5C 177.756,137.557 177.256,134.557 177,131.5C 173.976,138.58 171.643,145.913 170,153.5C 169,154.167 168,154.833 167,155.5C 165.948,160.585 164.114,165.251 161.5,169.5C 160.5,169.5 159.5,169.5 158.5,169.5C 157.862,171.46 157.862,173.293 158.5,175C 157.891,177.058 156.891,177.891 155.5,177.5C 156.806,178.912 157.64,180.579 158,182.5C 158.333,182.167 158.667,181.833 159,181.5C 159.465,182.931 160.299,184.097 161.5,185C 159,185.833 158.833,187 161,188.5C 174.231,186.855 187.731,185.188 201.5,183.5C 191.694,185.637 181.694,187.47 171.5,189C 164.201,191.129 158.201,194.963 153.5,200.5C 152.496,199.317 151.662,197.984 151,196.5C 150.501,192.514 150.334,188.514 150.5,184.5C 152.711,175.072 156.878,166.405 163,158.5C 173.818,136.197 182.652,113.197 189.5,89.5C 187.214,89.405 185.214,88.7384 183.5,87.5C 186.473,83.8604 189.806,80.5271 193.5,77.5 Z"/></g>
<g><path style="opacity:0.996" fill="#eab1ab" d="M 202.5,78.5 C 206.544,81.4384 210.877,82.4384 215.5,81.5C 217.179,81.2852 218.179,81.9519 218.5,83.5C 214.252,86.6154 209.586,87.2821 204.5,85.5C 202.832,83.5214 202.166,81.188 202.5,78.5 Z"/></g>
<g><path style="opacity:0.992" fill="#f9c195" d="M 205.5,82.5 C 208.157,82.162 210.49,82.8287 212.5,84.5C 209.506,85.8327 207.172,85.166 205.5,82.5 Z"/></g>
<g><path style="opacity:0.997" fill="#fc74d7" d="M 178.5,89.5 C 181.238,89.8511 183.904,90.5178 186.5,91.5C 187.614,92.723 187.781,94.0563 187,95.5C 180.855,112.273 174.521,128.94 168,145.5C 163.165,155.177 157.331,164.177 150.5,172.5C 134.204,182.009 120.038,179.342 108,164.5C 102.91,153.474 102.243,142.14 106,130.5C 113.923,114.986 122.089,99.6524 130.5,84.5C 131.742,83.9566 133.075,83.6233 134.5,83.5C 149.168,85.5739 163.834,87.5739 178.5,89.5 Z"/></g>
<g><path style="opacity:0.996" fill="#5e4761" d="M 218.5,83.5 C 218.216,85.4147 218.549,87.0813 219.5,88.5C 218.738,90.2624 217.404,91.2624 215.5,91.5C 214.833,91.5 214.167,91.5 213.5,91.5C 214.531,90.7515 215.698,90.0848 217,89.5C 217.749,88.365 217.583,87.365 216.5,86.5C 212.298,89.113 208.131,89.113 204,86.5C 203.536,87.0944 203.369,87.7611 203.5,88.5C 202.115,87.0527 202.448,86.0527 204.5,85.5C 209.586,87.2821 214.252,86.6154 218.5,83.5 Z"/></g>
<g><path style="opacity:0.996" fill="#e8a5ad" d="M 157.5,84.5 C 163.908,84.4408 170.241,85.1075 176.5,86.5C 179.336,86.2937 182.002,85.627 184.5,84.5C 183.694,85.7281 182.694,86.7281 181.5,87.5C 180.833,87.5 180.167,87.5 179.5,87.5C 171.891,87.5614 164.558,86.5614 157.5,84.5 Z"/></g>
<g><path style="opacity:0.992" fill="#732365" d="M 225.5,74.5 C 226.167,74.5 226.833,74.5 227.5,74.5C 230.14,77.8062 233.14,80.8062 236.5,83.5C 236.5,83.8333 236.5,84.1667 236.5,84.5C 236.953,85.4584 237.619,86.2917 238.5,87C 245.066,87.7579 251.4,87.2579 257.5,85.5C 266.176,84.6203 274.842,83.6203 283.5,82.5C 283.5,82.8333 283.5,83.1667 283.5,83.5C 268.673,85.8551 253.673,87.8551 238.5,89.5C 237.833,88.8333 237.167,88.1667 236.5,87.5C 234.42,83.9135 231.754,80.7468 228.5,78C 225.854,77.5026 223.187,77.3359 220.5,77.5C 220.677,81.2343 220.344,84.9009 219.5,88.5C 218.549,87.0813 218.216,85.4147 218.5,83.5C 218.179,81.9519 217.179,81.2852 215.5,81.5C 213.821,81.7148 212.821,81.0481 212.5,79.5C 214.38,79.7709 215.713,79.1042 216.5,77.5C 217.167,77.5 217.833,77.5 218.5,77.5C 219.5,76.8333 220.5,76.1667 221.5,75.5C 223.099,75.7678 224.432,75.4345 225.5,74.5 Z"/></g>
<g><path style="opacity:0.996" fill="#e1a2aa" d="M 236.5,84.5 C 238.557,85.892 240.891,86.5587 243.5,86.5C 246.492,86.0343 249.492,85.7009 252.5,85.5C 254.167,85.5 255.833,85.5 257.5,85.5C 251.4,87.2579 245.066,87.7579 238.5,87C 237.619,86.2917 236.953,85.4584 236.5,84.5 Z"/></g>
<g><path style="opacity:0.996" fill="#fb74d6" d="M 283.5,83.5 C 285.792,83.2436 287.959,83.5769 290,84.5C 297.667,98.1667 305.333,111.833 313,125.5C 318.961,138.526 318.961,151.526 313,164.5C 299.214,180.994 284.048,182.661 267.5,169.5C 261.911,161.994 257.077,153.994 253,145.5C 245.569,127.365 239.069,109.032 233.5,90.5C 235.415,90.7845 237.081,90.4511 238.5,89.5C 253.673,87.8551 268.673,85.8551 283.5,83.5 Z"/></g>
<g><path style="opacity:0.98" fill="#9ccdb9" d="M 213.5,91.5 C 210.813,91.6641 208.146,91.4974 205.5,91C 204.619,90.2917 203.953,89.4584 203.5,88.5C 203.369,87.7611 203.536,87.0944 204,86.5C 208.131,89.113 212.298,89.113 216.5,86.5C 217.583,87.365 217.749,88.365 217,89.5C 215.698,90.0848 214.531,90.7515 213.5,91.5 Z"/></g>
<g><path style="opacity:0.996" fill="#881e7d" d="M 236.5,87.5 C 237.167,88.1667 237.833,88.8333 238.5,89.5C 237.081,90.4511 235.415,90.7845 233.5,90.5C 239.069,109.032 245.569,127.365 253,145.5C 257.077,153.994 261.911,161.994 267.5,169.5C 267.672,170.492 267.338,171.158 266.5,171.5C 261.582,164 256.916,156.333 252.5,148.5C 247.909,137.23 243.409,125.897 239,114.5C 236.478,106.136 233.978,97.803 231.5,89.5C 233.553,89.5979 235.22,88.9313 236.5,87.5 Z"/></g>
<g><path style="opacity:0.996" fill="#fbfafa" d="M 206.5,105.5 C 209.059,105.198 211.393,105.532 213.5,106.5C 213.27,112.779 213.27,118.945 213.5,125C 210.538,124.308 207.538,124.474 204.5,125.5C 204.5,119.833 204.5,114.167 204.5,108.5C 205.167,107.5 205.833,106.5 206.5,105.5 Z"/></g>
<g><path style="opacity:0.996" fill="#773475" d="M 206.5,105.5 C 205.833,106.5 205.167,107.5 204.5,108.5C 203.549,109.919 203.216,111.585 203.5,113.5C 202.833,116.5 202.167,119.5 201.5,122.5C 200.115,117.944 197.115,114.778 192.5,113C 186.498,112.007 184.332,114.507 186,120.5C 188.086,123.094 190.586,125.094 193.5,126.5C 193.833,127.167 194.167,127.833 194.5,128.5C 190.119,128.372 185.785,128.705 181.5,129.5C 181.611,128.883 181.944,128.383 182.5,128C 185.226,127.818 187.893,127.318 190.5,126.5C 187.81,124.644 185.644,122.311 184,119.5C 183.685,112.181 187.185,109.681 194.5,112C 196.759,113.715 198.926,115.548 201,117.5C 201.333,114.5 201.667,111.5 202,108.5C 203.129,106.859 204.629,105.859 206.5,105.5 Z"/></g>
<g><path style="opacity:0.996" fill="#f6e7f6" d="M 213.5,106.5 C 214.117,106.611 214.617,106.944 215,107.5C 215.497,110.146 215.664,112.813 215.5,115.5C 215.131,119.768 214.131,123.768 212.5,127.5C 210.565,126.85 208.565,126.517 206.5,126.5C 205.5,126.5 204.5,126.5 203.5,126.5C 203.5,122.167 203.5,117.833 203.5,113.5C 203.216,111.585 203.549,109.919 204.5,108.5C 204.5,114.167 204.5,119.833 204.5,125.5C 207.538,124.474 210.538,124.308 213.5,125C 213.27,118.945 213.27,112.779 213.5,106.5 Z"/></g>
<g><path style="opacity:0.988" fill="#7f437e" d="M 284.5,75.5 C 284.833,75.5 285.167,75.5 285.5,75.5C 285.5,77.8333 285.5,80.1667 285.5,82.5C 286.791,82.7373 287.791,82.404 288.5,81.5C 299.029,95.8979 308.196,111.231 316,127.5C 321.408,141.385 320.408,154.718 313,167.5C 303.776,178.13 292.276,181.964 278.5,179C 275.418,177.591 272.585,175.758 270,173.5C 270.894,180.088 271.727,186.755 272.5,193.5C 272.665,198.079 270.665,201.079 266.5,202.5C 266.833,201.833 267.167,201.167 267.5,200.5C 269.949,198.272 270.949,195.439 270.5,192C 270.069,184.898 268.736,178.064 266.5,171.5C 267.338,171.158 267.672,170.492 267.5,169.5C 284.048,182.661 299.214,180.994 313,164.5C 318.961,151.526 318.961,138.526 313,125.5C 305.333,111.833 297.667,98.1667 290,84.5C 287.959,83.5769 285.792,83.2436 283.5,83.5C 283.5,83.1667 283.5,82.8333 283.5,82.5C 284.369,80.283 284.702,77.9496 284.5,75.5 Z"/></g>
<g><path style="opacity:0.996" fill="#8d207f" d="M 255.5,112.5 C 256.376,112.369 257.043,112.702 257.5,113.5C 260.699,119.234 263.365,125.234 265.5,131.5C 265.167,131.833 264.833,132.167 264.5,132.5C 261.493,125.82 258.493,119.154 255.5,112.5 Z"/></g>
<g><path style="opacity:0.996" fill="#fbf5fa" d="M 201.5,122.5 C 201.5,123.833 201.5,125.167 201.5,126.5C 198.833,126.5 196.167,126.5 193.5,126.5C 190.586,125.094 188.086,123.094 186,120.5C 184.332,114.507 186.498,112.007 192.5,113C 197.115,114.778 200.115,117.944 201.5,122.5 Z"/></g>
<g><path style="opacity:0.996" fill="#f9f5f9" d="M 231.5,114.5 C 232.754,116.357 232.754,118.357 231.5,120.5C 229.135,123.2 226.468,125.533 223.5,127.5C 221.167,127.5 218.833,127.5 216.5,127.5C 216.5,125.167 216.5,122.833 216.5,120.5C 218.167,118.167 220.167,116.167 222.5,114.5C 225.535,113.266 228.535,113.266 231.5,114.5 Z"/></g>
<g><path style="opacity:0.996" fill="#733373" d="M 213.5,163.5 C 209.331,166.584 205.831,165.918 203,161.5C 202.825,157.789 202.325,154.122 201.5,150.5C 199.208,152.657 196.875,154.824 194.5,157C 187,158.833 184.167,156 186,148.5C 187.458,146.04 189.291,143.873 191.5,142C 188.183,141.502 184.85,141.335 181.5,141.5C 179.32,139.969 178.32,137.802 178.5,135C 178.116,132.258 179.116,130.425 181.5,129.5C 180.89,130.391 180.557,131.391 180.5,132.5C 179.058,134.817 179.392,136.984 181.5,139C 186.155,139.499 190.821,139.666 195.5,139.5C 198.385,139.806 201.052,139.473 203.5,138.5C 203.833,138.5 204.167,138.5 204.5,138.5C 204.5,139.167 204.5,139.833 204.5,140.5C 203.833,140.5 203.167,140.5 202.5,140.5C 194.521,140.122 189.188,143.789 186.5,151.5C 187.114,153.948 188.614,155.615 191,156.5C 195.295,154.032 199.129,151.032 202.5,147.5C 203.167,151.167 203.833,154.833 204.5,158.5C 204.822,162.976 207.156,164.476 211.5,163C 213.227,160.096 213.893,156.93 213.5,153.5C 214.162,151.696 214.495,149.696 214.5,147.5C 214.461,145.048 213.794,143.048 212.5,141.5C 212.842,140.662 213.508,140.328 214.5,140.5C 220.176,140.666 225.843,140.499 231.5,140C 235.889,140.276 238.555,138.276 239.5,134C 238.846,132.013 237.513,130.68 235.5,130C 230.511,129.501 225.511,129.334 220.5,129.5C 221.5,128.833 222.5,128.167 223.5,127.5C 226.468,125.533 229.135,123.2 231.5,120.5C 232.754,118.357 232.754,116.357 231.5,114.5C 231.441,112.278 230.275,111.278 228,111.5C 225.601,111.613 223.768,112.613 222.5,114.5C 220.167,116.167 218.167,118.167 216.5,120.5C 215.549,119.081 215.216,117.415 215.5,115.5C 215.664,112.813 215.497,110.146 215,107.5C 214.617,106.944 214.117,106.611 213.5,106.5C 211.393,105.532 209.059,105.198 206.5,105.5C 206.611,104.883 206.944,104.383 207.5,104C 209.5,103.333 211.5,103.333 213.5,104C 216.651,107.135 218.317,110.968 218.5,115.5C 220.359,113.808 222.359,112.308 224.5,111C 231.282,109.125 234.448,111.625 234,118.5C 232.228,121.474 230.062,124.141 227.5,126.5C 230.848,127.287 234.182,128.121 237.5,129C 241.675,133.306 241.342,137.306 236.5,141C 233.118,141.176 229.785,141.676 226.5,142.5C 228.192,144.359 229.692,146.359 231,148.5C 231.667,150.833 231.667,153.167 231,155.5C 225.234,161.217 220.234,160.55 216,153.5C 214.847,156.755 214.013,160.088 213.5,163.5 Z"/></g>
<g><path style="opacity:0.996" fill="#f0d6f0" d="M 231.5,114.5 C 228.535,113.266 225.535,113.266 222.5,114.5C 223.768,112.613 225.601,111.613 228,111.5C 230.275,111.278 231.441,112.278 231.5,114.5 Z"/></g>
<g><path style="opacity:0.996" fill="#815d8d" d="M 203.5,113.5 C 203.5,117.833 203.5,122.167 203.5,126.5C 204.5,126.5 205.5,126.5 206.5,126.5C 205.205,127.488 203.872,128.488 202.5,129.5C 200.052,128.527 197.385,128.194 194.5,128.5C 194.167,127.833 193.833,127.167 193.5,126.5C 196.167,126.5 198.833,126.5 201.5,126.5C 201.5,125.167 201.5,123.833 201.5,122.5C 202.167,119.5 202.833,116.5 203.5,113.5 Z"/></g>
<g><path style="opacity:0.996" fill="#775c8c" d="M 215.5,115.5 C 215.216,117.415 215.549,119.081 216.5,120.5C 216.5,122.833 216.5,125.167 216.5,127.5C 218.833,127.5 221.167,127.5 223.5,127.5C 222.5,128.167 221.5,128.833 220.5,129.5C 218.833,129.5 217.167,129.5 215.5,129.5C 214.791,128.596 213.791,128.263 212.5,128.5C 212.5,128.167 212.5,127.833 212.5,127.5C 214.131,123.768 215.131,119.768 215.5,115.5 Z"/></g>
<g><path style="opacity:0.996" fill="#754135" d="M 206.5,126.5 C 208.565,126.517 210.565,126.85 212.5,127.5C 212.5,127.833 212.5,128.167 212.5,128.5C 204.008,127.633 201.341,130.966 204.5,138.5C 204.167,138.5 203.833,138.5 203.5,138.5C 201.327,135.778 200.994,132.778 202.5,129.5C 203.872,128.488 205.205,127.488 206.5,126.5 Z"/></g>
<g><path style="opacity:0.996" fill="#fbf8fa" d="M 195.5,139.5 C 190.821,139.666 186.155,139.499 181.5,139C 179.392,136.984 179.058,134.817 180.5,132.5C 186.653,130.304 192.986,129.97 199.5,131.5C 196.972,132.517 196.972,133.684 199.5,135C 198.833,135.333 198.167,135.667 197.5,136C 198.624,136.249 199.624,136.749 200.5,137.5C 198.709,138.17 197.042,138.837 195.5,139.5 Z"/></g>
<g><path style="opacity:0.996" fill="#f5b222" d="M 212.5,128.5 C 217.256,137.994 214.589,141.328 204.5,138.5C 201.341,130.966 204.008,127.633 212.5,128.5 Z"/></g>
<g><path style="opacity:0.996" fill="#f1e3f3" d="M 194.5,128.5 C 197.385,128.194 200.052,128.527 202.5,129.5C 200.994,132.778 201.327,135.778 203.5,138.5C 201.052,139.473 198.385,139.806 195.5,139.5C 197.042,138.837 198.709,138.17 200.5,137.5C 199.624,136.749 198.624,136.249 197.5,136C 198.167,135.667 198.833,135.333 199.5,135C 196.972,133.684 196.972,132.517 199.5,131.5C 192.986,129.97 186.653,130.304 180.5,132.5C 180.557,131.391 180.89,130.391 181.5,129.5C 185.785,128.705 190.119,128.372 194.5,128.5 Z"/></g>
<g><path style="opacity:0.996" fill="#f9f4f9" d="M 215.5,129.5 C 217.167,129.5 218.833,129.5 220.5,129.5C 225.511,129.334 230.511,129.501 235.5,130C 237.513,130.68 238.846,132.013 239.5,134C 238.555,138.276 235.889,140.276 231.5,140C 225.843,140.499 220.176,140.666 214.5,140.5C 216.721,137.057 217.054,133.39 215.5,129.5 Z"/></g>
<g><path style="opacity:0.996" fill="#861f7c" d="M 179.5,87.5 C 180.167,87.5 180.833,87.5 181.5,87.5C 182.167,87.5 182.833,87.5 183.5,87.5C 185.214,88.7384 187.214,89.405 189.5,89.5C 182.652,113.197 173.818,136.197 163,158.5C 156.878,166.405 152.711,175.072 150.5,184.5C 150.5,182.833 150.5,181.167 150.5,179.5C 150.366,177.708 150.699,176.042 151.5,174.5C 151.672,173.508 151.338,172.842 150.5,172.5C 157.331,164.177 163.165,155.177 168,145.5C 174.521,128.94 180.855,112.273 187,95.5C 187.781,94.0563 187.614,92.723 186.5,91.5C 183.904,90.5178 181.238,89.8511 178.5,89.5C 178.833,88.8333 179.167,88.1667 179.5,87.5 Z"/></g>
<g><path style="opacity:0.996" fill="#7d4741" d="M 212.5,128.5 C 213.791,128.263 214.791,128.596 215.5,129.5C 217.054,133.39 216.721,137.057 214.5,140.5C 213.508,140.328 212.842,140.662 212.5,141.5C 210.833,141.5 209.167,141.5 207.5,141.5C 206.609,140.89 205.609,140.557 204.5,140.5C 204.5,139.833 204.5,139.167 204.5,138.5C 214.589,141.328 217.256,137.994 212.5,128.5 Z"/></g>
<g><path style="opacity:0.998" fill="#fb74d6" d="M 252.5,148.5 C 256.916,156.333 261.582,164 266.5,171.5C 268.736,178.064 270.069,184.898 270.5,192C 270.949,195.439 269.949,198.272 267.5,200.5C 266.833,200.5 266.167,200.5 265.5,200.5C 265.703,198.61 265.037,197.11 263.5,196C 251.437,189.233 238.437,185.733 224.5,185.5C 216.951,183.798 209.285,183.132 201.5,183.5C 187.731,185.188 174.231,186.855 161,188.5C 158.833,187 159,185.833 161.5,185C 160.299,184.097 159.465,182.931 159,181.5C 158.667,181.833 158.333,182.167 158,182.5C 157.64,180.579 156.806,178.912 155.5,177.5C 156.891,177.891 157.891,177.058 158.5,175C 157.862,173.293 157.862,171.46 158.5,169.5C 159.5,169.5 160.5,169.5 161.5,169.5C 164.114,165.251 165.948,160.585 167,155.5C 168,154.833 169,154.167 170,153.5C 171.643,145.913 173.976,138.58 177,131.5C 177.256,134.557 177.756,137.557 178.5,140.5C 179.325,141.386 180.325,141.719 181.5,141.5C 184.85,141.335 188.183,141.502 191.5,142C 189.291,143.873 187.458,146.04 186,148.5C 184.167,156 187,158.833 194.5,157C 196.875,154.824 199.208,152.657 201.5,150.5C 202.325,154.122 202.825,157.789 203,161.5C 205.831,165.918 209.331,166.584 213.5,163.5C 215.759,162.656 216.759,160.989 216.5,158.5C 217.5,158.5 218.5,158.5 219.5,158.5C 219.756,160.792 219.423,162.959 218.5,165C 220.101,165.273 221.601,165.773 223,166.5C 223.333,164.953 222.833,163.62 221.5,162.5C 224.704,161.796 227.871,161.13 231,160.5C 231.88,157.644 232.713,154.811 233.5,152C 232.972,149.119 232.306,146.285 231.5,143.5C 233.199,143.38 234.865,143.046 236.5,142.5C 238.397,142.728 239.73,143.728 240.5,145.5C 241.086,145.291 241.586,144.957 242,144.5C 241.132,139.806 241.465,135.139 243,130.5C 244.232,133.3 244.899,136.3 245,139.5C 247.995,142.202 250.495,145.202 252.5,148.5 Z"/></g>
<g><path style="opacity:0.996" fill="#911d80" d="M 293.5,137.5 C 293.897,136.475 294.563,136.308 295.5,137C 297.833,139.333 300.167,141.667 302.5,144C 298.885,142.843 295.885,140.677 293.5,137.5 Z"/></g>
<g><path style="opacity:0.996" fill="#f7f2f9" d="M 202.5,140.5 C 202.5,142.833 202.5,145.167 202.5,147.5C 199.129,151.032 195.295,154.032 191,156.5C 188.614,155.615 187.114,153.948 186.5,151.5C 189.188,143.789 194.521,140.122 202.5,140.5 Z"/></g>
<g><path style="opacity:0.996" fill="#977aa1" d="M 202.5,140.5 C 203.167,140.5 203.833,140.5 204.5,140.5C 204.5,146.5 204.5,152.5 204.5,158.5C 203.833,154.833 203.167,151.167 202.5,147.5C 202.5,145.167 202.5,142.833 202.5,140.5 Z"/></g>
<g><path style="opacity:0.996" fill="#8c1e7f" d="M 138.5,137.5 C 140.028,137.517 140.528,138.184 140,139.5C 134.727,148.437 129.06,157.103 123,165.5C 122.333,164.5 122.333,163.5 123,162.5C 128.69,154.446 133.856,146.113 138.5,137.5 Z"/></g>
<g><path style="opacity:0.996" fill="#faf7fa" d="M 204.5,140.5 C 205.609,140.557 206.609,140.89 207.5,141.5C 209.265,142.461 211.265,142.795 213.5,142.5C 213.5,146.167 213.5,149.833 213.5,153.5C 213.893,156.93 213.227,160.096 211.5,163C 207.156,164.476 204.822,162.976 204.5,158.5C 204.5,152.5 204.5,146.5 204.5,140.5 Z"/></g>
<g><path style="opacity:0.996" fill="#c2aace" d="M 207.5,141.5 C 209.167,141.5 210.833,141.5 212.5,141.5C 213.794,143.048 214.461,145.048 214.5,147.5C 214.495,149.696 214.162,151.696 213.5,153.5C 213.5,149.833 213.5,146.167 213.5,142.5C 211.265,142.795 209.265,142.461 207.5,141.5 Z"/></g>
<g><path style="opacity:0.996" fill="#f6f0f7" d="M 215.5,142.5 C 224.761,141.267 229.594,145.267 230,154.5C 227.79,157.29 224.956,158.123 221.5,157C 219.667,155.167 217.833,153.333 216,151.5C 215.502,148.518 215.335,145.518 215.5,142.5 Z"/></g>
<g><path style="opacity:0.996" fill="#841474" d="M 249.5,169.5 C 246.352,168.526 244.519,166.526 244,163.5C 246.04,165.37 247.873,167.37 249.5,169.5 Z"/></g>
<g><path style="opacity:1" fill="#824580" d="M 130.5,82.5 C 130.5,83.1667 130.5,83.8333 130.5,84.5C 122.089,99.6524 113.923,114.986 106,130.5C 102.243,142.14 102.91,153.474 108,164.5C 120.038,179.342 134.204,182.009 150.5,172.5C 151.338,172.842 151.672,173.508 151.5,174.5C 135.241,183.581 120.741,181.248 108,167.5C 100.522,155.058 99.5221,142.058 105,128.5C 107.333,123.167 109.667,117.833 112,112.5C 118.823,102.857 124.989,92.8571 130.5,82.5 Z"/></g>
<g><path style="opacity:0.996" fill="#8b1a78" d="M 174.5,170.5 C 175.552,170.351 176.552,170.517 177.5,171C 174.774,172.688 171.941,174.188 169,175.5C 168.312,174.668 168.479,174.002 169.5,173.5C 171.396,172.725 173.063,171.725 174.5,170.5 Z"/></g>
<g><path style="opacity:0.996" fill="#92197c" d="M 249.5,169.5 C 252.323,170.148 253.823,171.814 254,174.5C 252.293,172.963 250.793,171.296 249.5,169.5 Z"/></g>
<g><path style="opacity:0.996" fill="#692568" d="M 201.5,183.5 C 209.285,183.132 216.951,183.798 224.5,185.5C 226.072,186.687 227.739,187.687 229.5,188.5C 221.944,186.741 214.277,185.741 206.5,185.5C 196.87,186.745 187.204,187.912 177.5,189C 176.584,189.278 175.918,189.778 175.5,190.5C 170.446,190.764 165.779,192.264 161.5,195C 159.887,197.228 159.22,199.728 159.5,202.5C 158.167,202.5 156.833,202.5 155.5,202.5C 155.167,202.5 154.833,202.5 154.5,202.5C 154.167,201.833 153.833,201.167 153.5,200.5C 158.201,194.963 164.201,191.129 171.5,189C 181.694,187.47 191.694,185.637 201.5,183.5 Z"/></g>
<g><path style="opacity:0.996" fill="#580e6d" d="M 224.5,185.5 C 238.437,185.733 251.437,189.233 263.5,196C 265.037,197.11 265.703,198.61 265.5,200.5C 264.142,201.626 262.808,201.626 261.5,200.5C 260.359,199.575 260.359,198.741 261.5,198C 260.167,197.333 259.167,196.333 258.5,195C 257.5,194.333 256.5,194.333 255.5,195C 256.696,195.654 256.696,196.154 255.5,196.5C 252.32,194.905 248.987,193.905 245.5,193.5C 240.178,191.835 234.845,190.169 229.5,188.5C 227.739,187.687 226.072,186.687 224.5,185.5 Z"/></g>
<g><path style="opacity:0.996" fill="#d1bdb6" d="M 229.5,188.5 C 234.845,190.169 240.178,191.835 245.5,193.5C 248.968,194.771 251.968,196.771 254.5,199.5C 254.44,200.043 254.107,200.376 253.5,200.5C 252.646,199.478 251.646,198.645 250.5,198C 248.167,197.667 245.833,197.333 243.5,197C 244.458,195.853 244.125,194.853 242.5,194C 239.574,193.782 236.74,193.282 234,192.5C 233.667,194.833 233.333,197.167 233,199.5C 232.502,196.518 232.335,193.518 232.5,190.5C 227.178,190.98 221.845,191.313 216.5,191.5C 216.843,189.517 216.176,188.183 214.5,187.5C 201.515,188.617 188.515,189.617 175.5,190.5C 175.918,189.778 176.584,189.278 177.5,189C 187.204,187.912 196.87,186.745 206.5,185.5C 214.277,185.741 221.944,186.741 229.5,188.5 Z"/></g>
<g><path style="opacity:0.996" fill="#531d67" d="M 245.5,193.5 C 248.987,193.905 252.32,194.905 255.5,196.5C 256.696,196.154 256.696,195.654 255.5,195C 256.5,194.333 257.5,194.333 258.5,195C 259.167,196.333 260.167,197.333 261.5,198C 260.359,198.741 260.359,199.575 261.5,200.5C 262.808,201.626 264.142,201.626 265.5,200.5C 266.167,200.5 266.833,200.5 267.5,200.5C 267.167,201.167 266.833,201.833 266.5,202.5C 265.222,202.782 264.222,203.449 263.5,204.5C 261.178,202.336 258.511,200.669 255.5,199.5C 255.167,199.5 254.833,199.5 254.5,199.5C 251.968,196.771 248.968,194.771 245.5,193.5 Z"/></g>
<g><path style="opacity:0.882" fill="#905a8b" d="M 150.5,179.5 C 150.5,181.167 150.5,182.833 150.5,184.5C 150.334,188.514 150.501,192.514 151,196.5C 151.662,197.984 152.496,199.317 153.5,200.5C 153.833,201.167 154.167,201.833 154.5,202.5C 152.629,202.141 151.129,201.141 150,199.5C 149.179,192.654 149.346,185.987 150.5,179.5 Z"/></g>
<g><path style="opacity:0.996" fill="#d2c7aa" d="M 214.5,187.5 C 214.916,192.493 215.249,197.493 215.5,202.5C 210.167,202.167 204.833,201.833 199.5,201.5C 198.833,188.167 198.167,188.167 197.5,201.5C 193.534,200.838 189.534,200.505 185.5,200.5C 186.068,197.412 186.068,194.412 185.5,191.5C 183.73,194.193 183.063,197.193 183.5,200.5C 162.167,200.833 162.167,201.167 183.5,201.5C 183.5,214.5 183.5,227.5 183.5,240.5C 177.907,240.807 172.407,240.473 167,239.5C 166.517,240.448 166.351,241.448 166.5,242.5C 172.145,241.866 177.811,241.532 183.5,241.5C 184.318,255.484 184.651,269.484 184.5,283.5C 181.061,283.747 177.728,283.414 174.5,282.5C 172.393,283.468 170.059,283.802 167.5,283.5C 167.895,274.038 167.062,264.705 165,255.5C 164.208,237.802 164.374,220.135 165.5,202.5C 166.388,199.946 166.721,197.279 166.5,194.5C 170.102,194.308 173.102,192.974 175.5,190.5C 188.515,189.617 201.515,188.617 214.5,187.5 Z"/></g>
<g><path style="opacity:0.996" fill="#755871" d="M 155.5,202.5 C 156.833,202.5 158.167,202.5 159.5,202.5C 158.086,213.596 157.086,224.596 156.5,235.5C 156.815,231.629 156.482,227.962 155.5,224.5C 155.618,217.939 156.285,211.439 157.5,205C 156.944,203.989 156.278,203.156 155.5,202.5 Z"/></g>
<g><path style="opacity:0.996" fill="#d2beb6" d="M 175.5,190.5 C 173.102,192.974 170.102,194.308 166.5,194.5C 166.721,197.279 166.388,199.946 165.5,202.5C 164.691,200.708 164.191,198.708 164,196.5C 163.333,197.167 162.667,197.833 162,198.5C 161.995,203.147 162.162,207.814 162.5,212.5C 161.207,211.158 160.374,209.491 160,207.5C 158.787,218.451 158.12,229.451 158,240.5C 157.722,241.416 157.222,242.082 156.5,242.5C 156.5,240.167 156.5,237.833 156.5,235.5C 157.086,224.596 158.086,213.596 159.5,202.5C 159.22,199.728 159.887,197.228 161.5,195C 165.779,192.264 170.446,190.764 175.5,190.5 Z"/></g>
<g><path style="opacity:0.994" fill="#6f536f" d="M 266.5,202.5 C 265.982,203.577 265.648,204.744 265.5,206C 266.995,214.099 267.662,222.265 267.5,230.5C 267.665,233.518 267.498,236.518 267,239.5C 265.899,227.819 264.733,216.152 263.5,204.5C 264.222,203.449 265.222,202.782 266.5,202.5 Z"/></g>
<g><path style="opacity:1" fill="#745b7b" d="M 155.5,224.5 C 156.482,227.962 156.815,231.629 156.5,235.5C 156.5,237.833 156.5,240.167 156.5,242.5C 155.586,245.728 155.253,249.061 155.5,252.5C 154.698,253.952 154.198,255.618 154,257.5C 153.505,255.527 153.338,253.527 153.5,251.5C 154.083,242.262 154.75,233.262 155.5,224.5 Z"/></g>
<g><path style="opacity:1" fill="#a28aa0" d="M 153.5,251.5 C 153.338,253.527 153.505,255.527 154,257.5C 154.198,255.618 154.698,253.952 155.5,252.5C 155.841,256.16 155.175,259.493 153.5,262.5C 153.768,260.901 153.434,259.568 152.5,258.5C 152.198,255.941 152.532,253.607 153.5,251.5 Z"/></g>
<g><path style="opacity:0.996" fill="#cfbab4" d="M 255.5,199.5 C 258.511,200.669 261.178,202.336 263.5,204.5C 264.733,216.152 265.899,227.819 267,239.5C 267.498,236.518 267.665,233.518 267.5,230.5C 268.482,233.962 268.815,237.629 268.5,241.5C 267.834,245.653 267.501,249.987 267.5,254.5C 268.001,266.18 268.668,277.847 269.5,289.5C 268.833,289.5 268.167,289.5 267.5,289.5C 266.333,266.66 265,243.827 263.5,221C 263.304,217.651 262.637,214.484 261.5,211.5C 261.663,209.143 261.497,206.81 261,204.5C 258.625,203.285 256.791,201.619 255.5,199.5 Z"/></g>
<g><path style="opacity:1" fill="#745b7b" d="M 268.5,241.5 C 269.999,261.132 271.332,280.799 272.5,300.5C 272.815,304.371 272.482,308.038 271.5,311.5C 271.374,303.972 270.707,296.639 269.5,289.5C 268.668,277.847 268.001,266.18 267.5,254.5C 267.501,249.987 267.834,245.653 268.5,241.5 Z"/></g>
<g><path style="opacity:0.996" fill="#d2c8a9" d="M 261.5,211.5 C 262.637,214.484 263.304,217.651 263.5,221C 265,243.827 266.333,266.66 267.5,289.5C 265.549,289.773 264.049,289.107 263,287.5C 261.171,275.858 259.671,264.191 258.5,252.5C 260.288,252.785 261.955,252.452 263.5,251.5C 261.257,250.526 258.924,250.192 256.5,250.5C 256.547,237.155 256.214,223.821 255.5,210.5C 257.5,210.833 259.5,211.167 261.5,211.5 Z"/></g>
<g><path style="opacity:0.996" fill="#d2c6a9" d="M 162.5,212.5 C 162.333,226.837 162.5,241.171 163,255.5C 165.023,265.045 165.856,274.712 165.5,284.5C 161.32,284.862 157.32,285.862 153.5,287.5C 154.333,287.833 155.167,288.167 156,288.5C 159.112,287.517 162.278,286.85 165.5,286.5C 164.629,296.819 163.963,307.152 163.5,317.5C 159.76,317.759 156.094,317.426 152.5,316.5C 151.516,313.572 151.183,310.572 151.5,307.5C 151.5,306.167 151.5,304.833 151.5,303.5C 152.493,294.682 152.827,285.682 152.5,276.5C 152.998,271.848 153.331,267.181 153.5,262.5C 155.175,259.493 155.841,256.16 155.5,252.5C 155.253,249.061 155.586,245.728 156.5,242.5C 157.222,242.082 157.722,241.416 158,240.5C 158.12,229.451 158.787,218.451 160,207.5C 160.374,209.491 161.207,211.158 162.5,212.5 Z"/></g>
<g><path style="opacity:0.776" fill="#6f5171" d="M 152.5,258.5 C 153.434,259.568 153.768,260.901 153.5,262.5C 153.331,267.181 152.998,271.848 152.5,276.5C 151.523,273.713 151.19,270.713 151.5,267.5C 151.264,264.391 151.597,261.391 152.5,258.5 Z"/></g>
<g><path style="opacity:0.996" fill="#dfd5b8" d="M 214.5,187.5 C 216.176,188.183 216.843,189.517 216.5,191.5C 221.845,191.313 227.178,190.98 232.5,190.5C 232.335,193.518 232.502,196.518 233,199.5C 233.333,197.167 233.667,194.833 234,192.5C 236.74,193.282 239.574,193.782 242.5,194C 244.125,194.853 244.458,195.853 243.5,197C 245.833,197.333 248.167,197.667 250.5,198C 251.646,198.645 252.646,199.478 253.5,200.5C 254.107,200.376 254.44,200.043 254.5,199.5C 254.833,199.5 255.167,199.5 255.5,199.5C 256.791,201.619 258.625,203.285 261,204.5C 261.497,206.81 261.663,209.143 261.5,211.5C 259.5,211.167 257.5,210.833 255.5,210.5C 256.214,223.821 256.547,237.155 256.5,250.5C 258.924,250.192 261.257,250.526 263.5,251.5C 261.955,252.452 260.288,252.785 258.5,252.5C 259.671,264.191 261.171,275.858 263,287.5C 264.049,289.107 265.549,289.773 267.5,289.5C 268.167,289.5 268.833,289.5 269.5,289.5C 269.5,298.833 269.5,308.167 269.5,317.5C 267.833,317.5 266.167,317.5 264.5,317.5C 263.117,308.587 262.117,299.587 261.5,290.5C 255.211,289.628 248.878,289.295 242.5,289.5C 242.726,297.54 243.392,305.54 244.5,313.5C 244.167,314.167 243.833,314.833 243.5,315.5C 242.498,306.814 241.331,298.147 240,289.5C 234.259,288.525 228.425,288.192 222.5,288.5C 222.868,297.509 223.035,306.509 223,315.5C 220.878,306.323 220.044,296.99 220.5,287.5C 211.167,286.833 211.167,286.167 220.5,285.5C 220.845,272.755 220.012,260.088 218,247.5C 216.47,246.08 214.637,245.08 212.5,244.5C 214.003,243.948 215.669,243.948 217.5,244.5C 217.396,231.154 216.896,217.82 216,204.5C 210.593,203.527 205.093,203.193 199.5,203.5C 199.999,207.475 200.332,211.475 200.5,215.5C 200.622,218.691 200.122,221.691 199,224.5C 198.675,217.476 198.175,210.476 197.5,203.5C 193.548,202.728 189.548,202.395 185.5,202.5C 184.605,214.807 184.272,227.141 184.5,239.5C 192.18,240.407 199.847,241.407 207.5,242.5C 207.38,243.586 206.713,244.253 205.5,244.5C 203.865,243.954 202.199,243.62 200.5,243.5C 201.569,257.143 201.569,270.81 200.5,284.5C 202.167,284.5 203.833,284.5 205.5,284.5C 205.5,285.167 205.5,285.833 205.5,286.5C 203.5,286.5 201.5,286.5 199.5,286.5C 198.861,296.841 198.194,307.174 197.5,317.5C 197.167,317.5 196.833,317.5 196.5,317.5C 196.196,316.85 195.863,316.183 195.5,315.5C 196.48,305.546 197.147,295.546 197.5,285.5C 193.5,285.5 189.5,285.5 185.5,285.5C 184.999,296.18 184.333,306.847 183.5,317.5C 183.167,317.5 182.833,317.5 182.5,317.5C 182.686,306.828 183.019,296.161 183.5,285.5C 177.907,285.193 172.407,285.527 167,286.5C 166.682,296.891 165.849,307.224 164.5,317.5C 164.167,317.5 163.833,317.5 163.5,317.5C 163.963,307.152 164.629,296.819 165.5,286.5C 162.278,286.85 159.112,287.517 156,288.5C 155.167,288.167 154.333,287.833 153.5,287.5C 157.32,285.862 161.32,284.862 165.5,284.5C 165.856,274.712 165.023,265.045 163,255.5C 162.5,241.171 162.333,226.837 162.5,212.5C 162.162,207.814 161.995,203.147 162,198.5C 162.667,197.833 163.333,197.167 164,196.5C 164.191,198.708 164.691,200.708 165.5,202.5C 164.374,220.135 164.208,237.802 165,255.5C 167.062,264.705 167.895,274.038 167.5,283.5C 170.059,283.802 172.393,283.468 174.5,282.5C 177.728,283.414 181.061,283.747 184.5,283.5C 184.651,269.484 184.318,255.484 183.5,241.5C 177.811,241.532 172.145,241.866 166.5,242.5C 166.351,241.448 166.517,240.448 167,239.5C 172.407,240.473 177.907,240.807 183.5,240.5C 183.5,227.5 183.5,214.5 183.5,201.5C 162.167,201.167 162.167,200.833 183.5,200.5C 183.063,197.193 183.73,194.193 185.5,191.5C 186.068,194.412 186.068,197.412 185.5,200.5C 189.534,200.505 193.534,200.838 197.5,201.5C 198.167,188.167 198.833,188.167 199.5,201.5C 204.833,201.833 210.167,202.167 215.5,202.5C 215.249,197.493 214.916,192.493 214.5,187.5 Z"/></g>
<g><path style="opacity:0.996" fill="#5f4451" d="M 174.5,282.5 C 173.624,282.631 172.957,282.298 172.5,281.5C 180.665,265.495 181.332,265.828 174.5,282.5 Z"/></g>
<g><path style="opacity:0.996" fill="#bd9eb0" d="M 209.5,239.5 C 210.222,239.918 210.722,240.584 211,241.5C 212.347,266.479 212.847,291.479 212.5,316.5C 211.504,301.342 211.17,286.009 211.5,270.5C 211.241,260.136 210.574,249.802 209.5,239.5 Z"/></g>
<g><path style="opacity:0.996" fill="#d1c7aa" d="M 239.5,250.5 C 239.833,253.167 240.167,255.833 240.5,258.5C 241.5,258.5 242.5,258.5 243.5,258.5C 243.338,256.473 243.505,254.473 244,252.5C 245.576,255.186 247.409,257.52 249.5,259.5C 250.304,261.189 251.304,262.855 252.5,264.5C 252.906,263.443 252.906,262.109 252.5,260.5C 251.539,257.574 250.873,254.574 250.5,251.5C 252.167,251.5 253.833,251.5 255.5,251.5C 257.755,263.779 259.755,276.112 261.5,288.5C 254.82,288.388 248.153,288.054 241.5,287.5C 240.715,276.45 239.381,265.45 237.5,254.5C 237.585,252.667 238.252,251.334 239.5,250.5 Z"/></g>
<g><path style="opacity:0.996" fill="#d2c7aa" d="M 185.5,241.5 C 189.824,241.927 194.158,242.261 198.5,242.5C 199.697,256.148 199.697,269.814 198.5,283.5C 194.167,283.5 189.833,283.5 185.5,283.5C 186.833,269.5 186.833,255.5 185.5,241.5 Z"/></g>
<g><path style="opacity:0.996" fill="#c6a6b3" d="M 208.5,249.5 C 209.491,255.979 209.824,262.646 209.5,269.5C 208.723,281.061 207.39,292.394 205.5,303.5C 205.5,297.833 205.5,292.167 205.5,286.5C 205.5,285.833 205.5,285.167 205.5,284.5C 207.22,282.342 208.053,279.675 208,276.5C 208.5,267.506 208.666,258.506 208.5,249.5 Z"/></g>
<g><path style="opacity:0.996" fill="#d2c0b2" d="M 248.5,249.5 C 248.833,250.5 249.5,251.167 250.5,251.5C 250.873,254.574 251.539,257.574 252.5,260.5C 247.963,252.092 243.963,243.425 240.5,234.5C 240.167,234.833 239.833,235.167 239.5,235.5C 243.026,243.409 246.359,251.409 249.5,259.5C 247.409,257.52 245.576,255.186 244,252.5C 243.505,254.473 243.338,256.473 243.5,258.5C 242.5,258.5 241.5,258.5 240.5,258.5C 240.167,255.833 239.833,253.167 239.5,250.5C 240.5,250.5 241.5,250.5 242.5,250.5C 241.589,245.786 239.755,241.453 237,237.5C 236.503,234.854 236.336,232.187 236.5,229.5C 237.75,229.423 238.583,228.756 239,227.5C 238.974,231.305 240.808,233.305 244.5,233.5C 245.208,238.963 246.541,244.296 248.5,249.5 Z"/></g>
<g><path style="opacity:0.996" fill="#d2c7a9" d="M 220.5,247.5 C 225.548,247.842 230.548,248.508 235.5,249.5C 236.997,262.142 238.33,274.809 239.5,287.5C 233.862,286.78 228.196,286.447 222.5,286.5C 222.7,273.431 222.033,260.431 220.5,247.5 Z"/></g>
<g><path style="opacity:0.996" fill="#d2c6ab" d="M 207.5,242.5 C 208.468,244.607 208.802,246.941 208.5,249.5C 208.666,258.506 208.5,267.506 208,276.5C 208.053,279.675 207.22,282.342 205.5,284.5C 203.833,284.5 202.167,284.5 200.5,284.5C 201.569,270.81 201.569,257.143 200.5,243.5C 202.199,243.62 203.865,243.954 205.5,244.5C 206.713,244.253 207.38,243.586 207.5,242.5 Z"/></g>
<g><path style="opacity:0.996" fill="#624658" d="M 252.5,260.5 C 252.906,262.109 252.906,263.443 252.5,264.5C 251.304,262.855 250.304,261.189 249.5,259.5C 246.359,251.409 243.026,243.409 239.5,235.5C 239.833,235.167 240.167,234.833 240.5,234.5C 243.963,243.425 247.963,252.092 252.5,260.5 Z"/></g>
<g><path style="opacity:0.996" fill="#5c3f4f" d="M 168.5,232.5 C 169.043,232.56 169.376,232.893 169.5,233.5C 164.886,239.949 164.552,239.616 168.5,232.5 Z"/></g>
<g><path style="opacity:0.996" fill="#5e3d58" d="M 209.5,239.5 C 210.574,249.802 211.241,260.136 211.5,270.5C 210.833,270.167 210.167,269.833 209.5,269.5C 209.824,262.646 209.491,255.979 208.5,249.5C 208.802,246.941 208.468,244.607 207.5,242.5C 205.63,236.449 202.296,231.282 197.5,227C 198.635,226.251 199.635,226.417 200.5,227.5C 203.556,231.542 206.556,235.542 209.5,239.5 Z"/></g>
<g><path style="opacity:0.996" fill="#d2c7a9" d="M 248.5,249.5 C 246.541,244.296 245.208,238.963 244.5,233.5C 240.808,233.305 238.974,231.305 239,227.5C 238.583,228.756 237.75,229.423 236.5,229.5C 235.449,221.888 234.782,214.222 234.5,206.5C 240.848,207.407 247.181,208.407 253.5,209.5C 254.117,221.832 254.784,234.165 255.5,246.5C 255.167,247.833 254.833,249.167 254.5,250.5C 252.591,249.652 250.591,249.318 248.5,249.5 Z"/></g>
<g><path style="opacity:0.998" fill="#d2c7aa" d="M 217.5,204.5 C 221.375,204.356 225.208,204.69 229,205.5C 230.326,205.755 231.326,206.422 232,207.5C 234.052,220.748 234.886,234.082 234.5,247.5C 229.781,246.756 225.114,245.756 220.5,244.5C 219.426,231.156 218.426,217.823 217.5,204.5 Z"/></g>
<g><path style="opacity:0.998" fill="#d2c7aa" d="M 264.5,317.5 C 254.527,316.634 244.527,316.301 234.5,316.5C 227.167,316.5 219.833,316.5 212.5,316.5C 212.847,291.479 212.347,266.479 211,241.5C 210.722,240.584 210.222,239.918 209.5,239.5C 206.556,235.542 203.556,231.542 200.5,227.5C 199.635,226.417 198.635,226.251 197.5,227C 202.296,231.282 205.63,236.449 207.5,242.5C 199.847,241.407 192.18,240.407 184.5,239.5C 184.272,227.141 184.605,214.807 185.5,202.5C 189.548,202.395 193.548,202.728 197.5,203.5C 198.175,210.476 198.675,217.476 199,224.5C 200.122,221.691 200.622,218.691 200.5,215.5C 200.332,211.475 199.999,207.475 199.5,203.5C 205.093,203.193 210.593,203.527 216,204.5C 216.896,217.82 217.396,231.154 217.5,244.5C 215.669,243.948 214.003,243.948 212.5,244.5C 214.637,245.08 216.47,246.08 218,247.5C 220.012,260.088 220.845,272.755 220.5,285.5C 211.167,286.167 211.167,286.833 220.5,287.5C 220.044,296.99 220.878,306.323 223,315.5C 223.035,306.509 222.868,297.509 222.5,288.5C 228.425,288.192 234.259,288.525 240,289.5C 241.331,298.147 242.498,306.814 243.5,315.5C 243.833,314.833 244.167,314.167 244.5,313.5C 243.392,305.54 242.726,297.54 242.5,289.5C 248.878,289.295 255.211,289.628 261.5,290.5C 262.117,299.587 263.117,308.587 264.5,317.5 Z"/></g>
<g><path style="opacity:1" fill="#d2c6a9" d="M 182.5,317.5 C 176.5,317.5 170.5,317.5 164.5,317.5C 165.849,307.224 166.682,296.891 167,286.5C 172.407,285.527 177.907,285.193 183.5,285.5C 183.019,296.161 182.686,306.828 182.5,317.5 Z"/></g>
<g><path style="opacity:0.996" fill="#d2c7aa" d="M 196.5,317.5 C 192.167,317.5 187.833,317.5 183.5,317.5C 184.333,306.847 184.999,296.18 185.5,285.5C 189.5,285.5 193.5,285.5 197.5,285.5C 197.147,295.546 196.48,305.546 195.5,315.5C 195.863,316.183 196.196,316.85 196.5,317.5 Z"/></g>
<g><path style="opacity:1" fill="#bfa5ad" d="M 151.5,267.5 C 151.19,270.713 151.523,273.713 152.5,276.5C 152.827,285.682 152.493,294.682 151.5,303.5C 151.826,294.651 151.493,285.984 150.5,277.5C 150.187,273.958 150.521,270.625 151.5,267.5 Z"/></g>
<g><path style="opacity:0.996" fill="#d2c5ab" d="M 205.5,286.5 C 205.5,292.167 205.5,297.833 205.5,303.5C 205.5,307.833 205.5,312.167 205.5,316.5C 202.946,317.388 200.279,317.721 197.5,317.5C 198.194,307.174 198.861,296.841 199.5,286.5C 201.5,286.5 203.5,286.5 205.5,286.5 Z"/></g>
<g><path style="opacity:0.827" fill="#725878" d="M 150.5,277.5 C 151.493,285.984 151.826,294.651 151.5,303.5C 151.5,304.833 151.5,306.167 151.5,307.5C 150.521,310.625 150.187,313.958 150.5,317.5C 149.609,318.11 148.609,318.443 147.5,318.5C 149.119,304.936 150.119,291.269 150.5,277.5 Z"/></g>
<g><path style="opacity:0.996" fill="#cfb6b8" d="M 269.5,289.5 C 270.707,296.639 271.374,303.972 271.5,311.5C 271.5,313.833 271.5,316.167 271.5,318.5C 258.993,318.189 246.66,317.522 234.5,316.5C 244.527,316.301 254.527,316.634 264.5,317.5C 266.167,317.5 267.833,317.5 269.5,317.5C 269.5,308.167 269.5,298.833 269.5,289.5 Z"/></g>
<g><path style="opacity:0.996" fill="#b898a6" d="M 151.5,307.5 C 151.183,310.572 151.516,313.572 152.5,316.5C 156.094,317.426 159.76,317.759 163.5,317.5C 163.833,317.5 164.167,317.5 164.5,317.5C 170.5,317.5 176.5,317.5 182.5,317.5C 182.833,317.5 183.167,317.5 183.5,317.5C 187.833,317.5 192.167,317.5 196.5,317.5C 196.833,317.5 197.167,317.5 197.5,317.5C 200.279,317.721 202.946,317.388 205.5,316.5C 196.692,317.832 187.525,318.498 178,318.5C 168.66,318.5 159.494,318.166 150.5,317.5C 150.187,313.958 150.521,310.625 151.5,307.5 Z"/></g>
<g><path style="opacity:0.996" fill="#51265b" d="M 209.5,269.5 C 210.167,269.833 210.833,270.167 211.5,270.5C 211.17,286.009 211.504,301.342 212.5,316.5C 212.5,317.167 212.5,317.833 212.5,318.5C 211.5,318.833 210.833,319.5 210.5,320.5C 210.167,320.5 209.833,320.5 209.5,320.5C 209.167,320.5 208.833,320.5 208.5,320.5C 208.5,319.833 208.167,319.5 207.5,319.5C 211.223,318.206 211.223,317.039 207.5,316C 208.448,315.517 209.448,315.351 210.5,315.5C 210.667,304.828 210.5,294.161 210,283.5C 207.692,295.355 206.525,307.355 206.5,319.5C 186.833,319.5 167.167,319.5 147.5,319.5C 147.5,319.167 147.5,318.833 147.5,318.5C 148.609,318.443 149.609,318.11 150.5,317.5C 159.494,318.166 168.66,318.5 178,318.5C 187.525,318.498 196.692,317.832 205.5,316.5C 205.5,312.167 205.5,307.833 205.5,303.5C 207.39,292.394 208.723,281.061 209.5,269.5 Z"/></g>
<g><path style="opacity:0.996" fill="#4d0c6c" d="M 207.5,319.5 C 207.167,319.5 206.833,319.5 206.5,319.5C 206.525,307.355 207.692,295.355 210,283.5C 210.5,294.161 210.667,304.828 210.5,315.5C 209.448,315.351 208.448,315.517 207.5,316C 211.223,317.039 211.223,318.206 207.5,319.5 Z"/></g>
<g><path style="opacity:0.996" fill="#613e5e" d="M 212.5,316.5 C 219.833,316.5 227.167,316.5 234.5,316.5C 246.66,317.522 258.993,318.189 271.5,318.5C 272.5,318.833 273.167,319.5 273.5,320.5C 262.187,319.674 250.854,319.34 239.5,319.5C 230.682,318.507 221.682,318.173 212.5,318.5C 212.5,317.833 212.5,317.167 212.5,316.5 Z"/></g>
<g><path style="opacity:0.996" fill="#a7899c" d="M 147.5,320.5 C 147.5,320.167 147.5,319.833 147.5,319.5C 167.167,319.5 186.833,319.5 206.5,319.5C 206.833,319.5 207.167,319.5 207.5,319.5C 208.167,319.5 208.5,319.833 208.5,320.5C 208.5,323.833 208.5,327.167 208.5,330.5C 207.799,327.437 207.132,324.27 206.5,321C 186.836,320.5 167.169,320.333 147.5,320.5 Z"/></g>
<g><path style="opacity:0.996" fill="#d3c7ab" d="M 212.5,318.5 C 221.682,318.173 230.682,318.507 239.5,319.5C 249.333,320.405 259.333,321.071 269.5,321.5C 269.633,324.896 270.633,325.229 272.5,322.5C 275.49,326.09 276.156,330.09 274.5,334.5C 268.333,334.833 262.167,335.167 256,335.5C 241.511,334.487 227.011,333.821 212.5,333.5C 211.125,329.302 210.458,324.969 210.5,320.5C 210.833,319.5 211.5,318.833 212.5,318.5 Z"/></g>
<g><path style="opacity:0.886" fill="#8a728c" d="M 272.5,300.5 C 273.328,306.319 273.828,312.319 274,318.5C 276.598,319.68 278.264,321.68 279,324.5C 279.81,328.358 279.643,332.024 278.5,335.5C 278.91,331.346 278.577,328.679 277.5,327.5C 276.897,324.825 275.564,322.492 273.5,320.5C 273.167,319.5 272.5,318.833 271.5,318.5C 271.5,316.167 271.5,313.833 271.5,311.5C 272.482,308.038 272.815,304.371 272.5,300.5 Z"/></g>
<g><path style="opacity:0.996" fill="#d4c5b1" d="M 147.5,320.5 C 167.169,320.333 186.836,320.5 206.5,321C 207.132,324.27 207.799,327.437 208.5,330.5C 208.5,331.167 208.5,331.833 208.5,332.5C 208.446,334.632 207.446,335.965 205.5,336.5C 205.5,334.833 205.5,333.167 205.5,331.5C 203.571,331.769 201.905,331.269 200.5,330C 202.321,327.544 202.988,324.711 202.5,321.5C 186.055,320.895 169.722,321.562 153.5,323.5C 151.865,322.954 150.199,322.62 148.5,322.5C 148.57,325.924 149.736,328.924 152,331.5C 164.438,330.179 176.938,330.179 189.5,331.5C 178.167,332.167 166.833,332.833 155.5,333.5C 171.309,334.715 186.976,335.715 202.5,336.5C 191.167,336.5 179.833,336.5 168.5,336.5C 162.048,336.916 155.715,336.416 149.5,335C 145.626,330.411 144.959,325.577 147.5,320.5 Z"/></g>
<g><path style="opacity:0.996" fill="#d3c9a9" d="M 205.5,336.5 C 204.5,336.5 203.5,336.5 202.5,336.5C 186.976,335.715 171.309,334.715 155.5,333.5C 166.833,332.833 178.167,332.167 189.5,331.5C 176.938,330.179 164.438,330.179 152,331.5C 149.736,328.924 148.57,325.924 148.5,322.5C 150.199,322.62 151.865,322.954 153.5,323.5C 169.722,321.562 186.055,320.895 202.5,321.5C 202.988,324.711 202.321,327.544 200.5,330C 201.905,331.269 203.571,331.769 205.5,331.5C 205.5,333.167 205.5,334.833 205.5,336.5 Z"/></g>
<g><path style="opacity:0.982" fill="#573e55" d="M 278.5,335.5 C 277.599,337.727 275.933,338.727 273.5,338.5C 273.5,338.167 273.5,337.833 273.5,337.5C 274.848,336.814 276.015,335.814 277,334.5C 277.497,332.19 277.663,329.857 277.5,327.5C 278.577,328.679 278.91,331.346 278.5,335.5 Z"/></g>
<g><path style="opacity:0.996" fill="#cfb8b7" d="M 239.5,319.5 C 250.854,319.34 262.187,319.674 273.5,320.5C 275.564,322.492 276.897,324.825 277.5,327.5C 277.663,329.857 277.497,332.19 277,334.5C 276.015,335.814 274.848,336.814 273.5,337.5C 270.5,337.5 267.5,337.5 264.5,337.5C 248.836,336.778 233.169,336.111 217.5,335.5C 215.444,334.784 213.277,334.117 211,333.5C 209.71,329.27 209.21,324.936 209.5,320.5C 209.833,320.5 210.167,320.5 210.5,320.5C 210.458,324.969 211.125,329.302 212.5,333.5C 227.011,333.821 241.511,334.487 256,335.5C 262.167,335.167 268.333,334.833 274.5,334.5C 276.156,330.09 275.49,326.09 272.5,322.5C 270.633,325.229 269.633,324.896 269.5,321.5C 259.333,321.071 249.333,320.405 239.5,319.5 Z"/></g>
<g><path style="opacity:0.929" fill="#5d5068" d="M 147.5,318.5 C 147.5,318.833 147.5,319.167 147.5,319.5C 147.5,319.833 147.5,320.167 147.5,320.5C 144.959,325.577 145.626,330.411 149.5,335C 155.715,336.416 162.048,336.916 168.5,336.5C 178.987,337.494 189.654,337.828 200.5,337.5C 200.833,338.167 201.167,338.833 201.5,339.5C 191.218,338.548 180.885,338.214 170.5,338.5C 165.167,338.5 159.833,338.5 154.5,338.5C 154.5,343.833 154.5,349.167 154.5,354.5C 153.662,354.842 153.328,355.508 153.5,356.5C 150.783,359.237 149.45,362.57 149.5,366.5C 148.732,364.285 148.065,361.952 147.5,359.5C 148.675,359.719 149.675,359.386 150.5,358.5C 153.418,351.98 154.251,345.314 153,338.5C 146.314,336.668 143.147,332.168 143.5,325C 143.707,322.076 145.04,319.91 147.5,318.5 Z"/></g>
<g><path style="opacity:0.996" fill="#b798ae" d="M 208.5,332.5 C 210.22,333.751 210.553,335.251 209.5,337C 210.094,337.464 210.761,337.631 211.5,337.5C 210.329,338.345 208.995,339.011 207.5,339.5C 205.721,337.656 203.388,336.99 200.5,337.5C 189.654,337.828 178.987,337.494 168.5,336.5C 179.833,336.5 191.167,336.5 202.5,336.5C 203.5,336.5 204.5,336.5 205.5,336.5C 207.446,335.965 208.446,334.632 208.5,332.5 Z"/></g>
<g><path style="opacity:0.871" fill="#623b63" d="M 208.5,320.5 C 208.833,320.5 209.167,320.5 209.5,320.5C 209.21,324.936 209.71,329.27 211,333.5C 213.277,334.117 215.444,334.784 217.5,335.5C 216.662,335.842 216.328,336.508 216.5,337.5C 214.833,336.167 213.167,336.167 211.5,337.5C 210.761,337.631 210.094,337.464 209.5,337C 210.553,335.251 210.22,333.751 208.5,332.5C 208.5,331.833 208.5,331.167 208.5,330.5C 208.5,327.167 208.5,323.833 208.5,320.5 Z"/></g>
<g><path style="opacity:0.996" fill="#4c235f" d="M 200.5,337.5 C 203.388,336.99 205.721,337.656 207.5,339.5C 206.609,340.11 205.609,340.443 204.5,340.5C 203.209,340.737 202.209,340.404 201.5,339.5C 201.167,338.833 200.833,338.167 200.5,337.5 Z"/></g>
<g><path style="opacity:0.992" fill="#472957" d="M 264.5,337.5 C 267.5,337.5 270.5,337.5 273.5,337.5C 273.5,337.833 273.5,338.167 273.5,338.5C 271.544,344.412 270.877,350.745 271.5,357.5C 271.5,358.167 271.5,358.833 271.5,359.5C 271.167,359.5 270.833,359.5 270.5,359.5C 270.5,353.5 270.5,347.5 270.5,341.5C 268.784,341.371 267.117,341.038 265.5,340.5C 264.833,340.5 264.5,340.167 264.5,339.5C 264.5,338.833 264.5,338.167 264.5,337.5 Z"/></g>
<g><path style="opacity:0.996" fill="#90bca8" d="M 170.5,338.5 C 180.885,338.214 191.218,338.548 201.5,339.5C 202.209,340.404 203.209,340.737 204.5,340.5C 204.5,340.833 204.5,341.167 204.5,341.5C 201.833,341.167 199.167,340.833 196.5,340.5C 187.833,339.833 179.167,339.167 170.5,338.5 Z"/></g>
<g><path style="opacity:1" fill="#85a6a0" d="M 236.5,338.5 C 230.819,338.365 225.152,338.032 219.5,337.5C 218.834,341.486 218.501,345.653 218.5,350C 218.509,354.557 219.175,358.724 220.5,362.5C 220.027,363.906 219.027,364.573 217.5,364.5C 217.5,355.167 217.5,345.833 217.5,336.5C 224.093,336.085 230.426,336.752 236.5,338.5 Z"/></g>
<g><path style="opacity:0.678" fill="#524e62" d="M 217.5,335.5 C 233.169,336.111 248.836,336.778 264.5,337.5C 264.5,338.167 264.5,338.833 264.5,339.5C 255.156,339.401 245.823,339.068 236.5,338.5C 230.426,336.752 224.093,336.085 217.5,336.5C 217.5,345.833 217.5,355.167 217.5,364.5C 217.167,364.5 216.833,364.5 216.5,364.5C 215.403,355.516 215.403,346.516 216.5,337.5C 216.328,336.508 216.662,335.842 217.5,335.5 Z"/></g>
<g><path style="opacity:1" fill="#90afaa" d="M 265.5,340.5 C 267.117,341.038 268.784,341.371 270.5,341.5C 270.5,347.5 270.5,353.5 270.5,359.5C 268.872,360.853 267.538,360.519 266.5,358.5C 267.5,358.5 268.5,358.5 269.5,358.5C 269.5,353.167 269.5,347.833 269.5,342.5C 267.62,342.771 266.287,342.104 265.5,340.5 Z"/></g>
<g><path style="opacity:0.996" fill="#8be6a8" d="M 196.5,340.5 C 199.167,340.833 201.833,341.167 204.5,341.5C 204.511,357.175 204.844,372.842 205.5,388.5C 204.89,389.391 204.557,390.391 204.5,391.5C 203.942,392.79 202.942,393.623 201.5,394C 187.504,394.5 173.504,394.667 159.5,394.5C 159.737,393.209 159.404,392.209 158.5,391.5C 156.736,387.634 154.736,383.967 152.5,380.5C 152.5,379.5 152.5,378.5 152.5,377.5C 152.353,373.094 151.686,368.761 150.5,364.5C 152.054,362.056 153.054,359.389 153.5,356.5C 153.328,355.508 153.662,354.842 154.5,354.5C 156.131,349.9 157.131,344.9 157.5,339.5C 163.95,340.724 170.617,341.391 177.5,341.5C 183.84,341.2 190.173,340.866 196.5,340.5 Z"/></g>
<g><path style="opacity:0.998" fill="#97d7b5" d="M 170.5,338.5 C 179.167,339.167 187.833,339.833 196.5,340.5C 190.173,340.866 183.84,341.2 177.5,341.5C 170.617,341.391 163.95,340.724 157.5,339.5C 157.131,344.9 156.131,349.9 154.5,354.5C 154.5,349.167 154.5,343.833 154.5,338.5C 159.833,338.5 165.167,338.5 170.5,338.5 Z"/></g>
<g><path style="opacity:0.996" fill="#8be6a8" d="M 219.5,337.5 C 225.152,338.032 230.819,338.365 236.5,338.5C 245.823,339.068 255.156,339.401 264.5,339.5C 264.5,340.167 264.833,340.5 265.5,340.5C 266.287,342.104 267.62,342.771 269.5,342.5C 269.5,347.833 269.5,353.167 269.5,358.5C 268.5,358.5 267.5,358.5 266.5,358.5C 264.485,357.076 262.152,356.41 259.5,356.5C 257.901,356.768 256.568,356.434 255.5,355.5C 255.082,354.778 254.416,354.278 253.5,354C 247.141,353.831 240.807,353.331 234.5,352.5C 238.444,350.596 238.11,349.596 233.5,349.5C 233.649,350.552 233.483,351.552 233,352.5C 232.333,353.833 231.667,353.833 231,352.5C 230.293,354.081 229.46,355.581 228.5,357C 225.457,357.798 222.624,358.965 220,360.5C 219.5,352.841 219.334,345.174 219.5,337.5 Z"/></g>
<g><path style="opacity:0.496" fill="#bca9cd" d="M 273.5,338.5 C 272.87,344.934 272.203,351.267 271.5,357.5C 270.877,350.745 271.544,344.412 273.5,338.5 Z"/></g>
<g><path style="opacity:1" fill="#93beb2" d="M 204.5,341.5 C 205.353,354.165 206.02,366.998 206.5,380C 206.498,383.021 206.164,385.854 205.5,388.5C 204.844,372.842 204.511,357.175 204.5,341.5 Z"/></g>
<g><path style="opacity:0.996" fill="#98dab2" d="M 219.5,337.5 C 219.334,345.174 219.5,352.841 220,360.5C 222.624,358.965 225.457,357.798 228.5,357C 229.46,355.581 230.293,354.081 231,352.5C 231.667,353.833 232.333,353.833 233,352.5C 233.483,351.552 233.649,350.552 233.5,349.5C 238.11,349.596 238.444,350.596 234.5,352.5C 240.807,353.331 247.141,353.831 253.5,354C 254.416,354.278 255.082,354.778 255.5,355.5C 254.167,355.5 252.833,355.5 251.5,355.5C 242.08,353.043 233.413,354.71 225.5,360.5C 223.716,360.893 222.05,361.559 220.5,362.5C 219.175,358.724 218.509,354.557 218.5,350C 218.501,345.653 218.834,341.486 219.5,337.5 Z"/></g>
<g><path style="opacity:0.996" fill="#6f597a" d="M 251.5,355.5 C 246.637,355.181 241.97,355.514 237.5,356.5C 233.675,358.317 229.675,359.65 225.5,360.5C 233.413,354.71 242.08,353.043 251.5,355.5 Z"/></g>
<g><path style="opacity:0.996" fill="#a0b6b0" d="M 259.5,356.5 C 262.152,356.41 264.485,357.076 266.5,358.5C 263.848,358.59 261.515,357.924 259.5,356.5 Z"/></g>
<g><path style="opacity:0.996" fill="#f873d6" d="M 237.5,356.5 C 248.918,355.345 259.585,357.512 269.5,363C 276.631,368.707 277.298,374.874 271.5,381.5C 267.828,379.247 263.828,377.914 259.5,377.5C 258.391,376.71 257.058,376.21 255.5,376C 248.833,375.333 242.167,375.333 235.5,376C 229.6,377.282 224.6,380.115 220.5,384.5C 218.474,381.103 216.474,377.77 214.5,374.5C 214.343,373.127 214.51,371.793 215,370.5C 218.396,366.935 221.896,363.602 225.5,360.5C 229.675,359.65 233.675,358.317 237.5,356.5 Z"/></g>
<g><path style="opacity:1" fill="#753e78" d="M 147.5,359.5 C 148.065,361.952 148.732,364.285 149.5,366.5C 150.134,370.373 151.134,374.039 152.5,377.5C 152.5,378.5 152.5,379.5 152.5,380.5C 151.728,379.306 150.728,378.306 149.5,377.5C 149.5,377.167 149.5,376.833 149.5,376.5C 148.442,371.157 147.275,365.824 146,360.5C 143.79,357.71 140.956,356.877 137.5,358C 130.259,359.704 123.759,362.871 118,367.5C 115.498,372.81 114.332,378.477 114.5,384.5C 114.194,387.385 114.527,390.052 115.5,392.5C 115.5,393.167 115.5,393.833 115.5,394.5C 115.158,395.338 114.492,395.672 113.5,395.5C 113.821,390.305 113.487,385.305 112.5,380.5C 111.833,380.5 111.5,380.167 111.5,379.5C 112.999,375.258 114.499,370.925 116,366.5C 124.495,359.113 134.328,355.946 145.5,357C 146.381,357.708 147.047,358.542 147.5,359.5 Z"/></g>
<g><path style="opacity:0.996" fill="#f874d7" d="M 149.5,376.5 C 137.803,379.007 126.136,381.674 114.5,384.5C 114.332,378.477 115.498,372.81 118,367.5C 123.759,362.871 130.259,359.704 137.5,358C 140.956,356.877 143.79,357.71 146,360.5C 147.275,365.824 148.442,371.157 149.5,376.5 Z"/></g>
<g><path style="opacity:0.996" fill="#99cdb5" d="M 153.5,356.5 C 153.054,359.389 152.054,362.056 150.5,364.5C 151.686,368.761 152.353,373.094 152.5,377.5C 151.134,374.039 150.134,370.373 149.5,366.5C 149.45,362.57 150.783,359.237 153.5,356.5 Z"/></g>
<g><path style="opacity:0.996" fill="#8cbfa7" d="M 194.5,373.5 C 195.75,373.423 196.583,372.756 197,371.5C 197.667,368.5 197.667,365.5 197,362.5C 196.974,366.179 196.14,369.512 194.5,372.5C 194.942,368.846 195.276,365.179 195.5,361.5C 196.833,361.5 198.167,361.5 199.5,361.5C 199.073,365.824 198.739,370.158 198.5,374.5C 196.901,374.768 195.568,374.434 194.5,373.5 Z"/></g>
<g><path style="opacity:0.996" fill="#7c3c7e" d="M 225.5,360.5 C 221.896,363.602 218.396,366.935 215,370.5C 214.51,371.793 214.343,373.127 214.5,374.5C 214.167,375.167 213.833,375.833 213.5,376.5C 213.087,382.037 213.92,387.37 216,392.5C 216.414,392.957 216.914,393.291 217.5,393.5C 218.169,391.369 218.835,389.369 219.5,387.5C 219.5,389.833 219.5,392.167 219.5,394.5C 217.901,394.232 216.568,394.566 215.5,395.5C 213.832,397.479 213.166,399.812 213.5,402.5C 212.833,402.833 212.167,403.167 211.5,403.5C 211.5,401.833 211.5,400.167 211.5,398.5C 214.644,394.518 214.811,390.185 212,385.5C 210.388,377.792 211.888,370.792 216.5,364.5C 216.833,364.5 217.167,364.5 217.5,364.5C 219.027,364.573 220.027,363.906 220.5,362.5C 222.05,361.559 223.716,360.893 225.5,360.5 Z"/></g>
<g><path style="opacity:0.996" fill="#384e55" d="M 194.5,373.5 C 194.5,373.167 194.5,372.833 194.5,372.5C 196.14,369.512 196.974,366.179 197,362.5C 197.667,365.5 197.667,368.5 197,371.5C 196.583,372.756 195.75,373.423 194.5,373.5 Z"/></g>
<g><path style="opacity:1" fill="#844483" d="M 237.5,356.5 C 241.97,355.514 246.637,355.181 251.5,355.5C 252.833,355.5 254.167,355.5 255.5,355.5C 256.568,356.434 257.901,356.768 259.5,356.5C 261.515,357.924 263.848,358.59 266.5,358.5C 267.538,360.519 268.872,360.853 270.5,359.5C 270.833,359.5 271.167,359.5 271.5,359.5C 275.16,365.06 278.327,371.06 281,377.5C 282.729,382.954 282.896,388.454 281.5,394C 282.973,397.336 283.64,400.836 283.5,404.5C 282.833,404.5 282.167,404.5 281.5,404.5C 281.5,404.167 281.5,403.833 281.5,403.5C 281.834,400.509 280.834,398.176 278.5,396.5C 278.5,395.833 278.5,395.167 278.5,394.5C 279.764,388.982 279.764,383.316 278.5,377.5C 278.019,375.269 277.352,375.102 276.5,377C 275.391,379.047 274.724,381.213 274.5,383.5C 273.29,383.068 272.29,382.401 271.5,381.5C 277.298,374.874 276.631,368.707 269.5,363C 259.585,357.512 248.918,355.345 237.5,356.5 Z"/></g>
<g><path style="opacity:0.996" fill="#9bb7c1" d="M 250.5,377.5 C 246.99,377.668 243.49,378.001 240,378.5C 238.014,378.569 236.514,379.235 235.5,380.5C 233.958,379.699 232.292,379.366 230.5,379.5C 236.965,376.542 243.632,375.875 250.5,377.5 Z"/></g>
<g><path style="opacity:0.996" fill="#a19ec6" d="M 252.5,377.5 C 254.833,377.5 257.167,377.5 259.5,377.5C 260.429,378.315 261.429,379.148 262.5,380C 262.272,380.399 261.938,380.565 261.5,380.5C 258.341,379.669 255.341,378.669 252.5,377.5 Z"/></g>
<g><path style="opacity:0.996" fill="#8c2582" d="M 149.5,376.5 C 149.5,376.833 149.5,377.167 149.5,377.5C 138.546,380.261 127.546,383.094 116.5,386C 115.577,388.041 115.244,390.208 115.5,392.5C 114.527,390.052 114.194,387.385 114.5,384.5C 126.136,381.674 137.803,379.007 149.5,376.5 Z"/></g>
<g><path style="opacity:0.996" fill="#475960" d="M 250.5,377.5 C 251.167,377.5 251.833,377.5 252.5,377.5C 255.341,378.669 258.341,379.669 261.5,380.5C 261.5,380.833 261.5,381.167 261.5,381.5C 259.435,381.483 257.435,381.15 255.5,380.5C 249.003,379.681 242.336,379.681 235.5,380.5C 236.514,379.235 238.014,378.569 240,378.5C 243.49,378.001 246.99,377.668 250.5,377.5 Z"/></g>
<g><path style="opacity:0.855" fill="#5c5471" d="M 207.5,339.5 C 206.641,352.806 206.975,366.306 208.5,380C 207.669,384.82 207.002,389.653 206.5,394.5C 205.833,393.5 205.167,392.5 204.5,391.5C 204.557,390.391 204.89,389.391 205.5,388.5C 206.164,385.854 206.498,383.021 206.5,380C 206.02,366.998 205.353,354.165 204.5,341.5C 204.5,341.167 204.5,340.833 204.5,340.5C 205.609,340.443 206.609,340.11 207.5,339.5 Z"/></g>
<g><path style="opacity:0.996" fill="#9dd2be" d="M 255.5,380.5 C 248.671,381.499 242.005,381.499 235.5,380.5C 242.336,379.681 249.003,379.681 255.5,380.5 Z"/></g>
<g><path style="opacity:0.995" fill="#eb73d6" d="M 278.5,394.5 C 276.902,392.143 275.902,389.477 275.5,386.5C 275.443,385.391 275.11,384.391 274.5,383.5C 274.724,381.213 275.391,379.047 276.5,377C 277.352,375.102 278.019,375.269 278.5,377.5C 279.764,383.316 279.764,388.982 278.5,394.5 Z"/></g>
<g><path style="opacity:0.996" fill="#f974d7" d="M 149.5,377.5 C 150.728,378.306 151.728,379.306 152.5,380.5C 153.393,384.613 155.06,388.28 157.5,391.5C 157.5,392.5 157.5,393.5 157.5,394.5C 143.5,394.5 129.5,394.5 115.5,394.5C 115.5,393.833 115.5,393.167 115.5,392.5C 115.244,390.208 115.577,388.041 116.5,386C 127.546,383.094 138.546,380.261 149.5,377.5 Z"/></g>
<g><path style="opacity:0.996" fill="#99c9b4" d="M 255.5,380.5 C 257.435,381.15 259.435,381.483 261.5,381.5C 266.313,380.741 270.313,382.075 273.5,385.5C 268.261,384.195 262.928,383.361 257.5,383C 256.244,382.583 255.577,381.75 255.5,380.5 Z"/></g>
<g><path style="opacity:0.996" fill="#ed73db" d="M 213.5,376.5 C 216.258,379.678 218.258,383.345 219.5,387.5C 218.835,389.369 218.169,391.369 217.5,393.5C 216.914,393.291 216.414,392.957 216,392.5C 213.92,387.37 213.087,382.037 213.5,376.5 Z"/></g>
<g><path style="opacity:0.996" fill="#98beb4" d="M 230.5,379.5 C 228.229,381.266 226.063,383.266 224,385.5C 223.503,388.146 223.336,390.813 223.5,393.5C 239.503,393.667 255.503,393.5 271.5,393C 272.669,390.993 273.335,388.827 273.5,386.5C 274.152,387.449 274.486,388.615 274.5,390C 274.325,391.658 273.658,392.991 272.5,394C 265.321,394.171 258.321,394.671 251.5,395.5C 251.167,395.5 250.833,395.5 250.5,395.5C 241.1,395.886 231.766,395.386 222.5,394C 220.122,386.515 222.788,381.682 230.5,379.5 Z"/></g>
<g><path style="opacity:0.992" fill="#4f2f62" d="M 259.5,377.5 C 263.828,377.914 267.828,379.247 271.5,381.5C 272.29,382.401 273.29,383.068 274.5,383.5C 275.11,384.391 275.443,385.391 275.5,386.5C 275.777,389.448 275.444,392.281 274.5,395C 266.841,395.5 259.174,395.666 251.5,395.5C 258.321,394.671 265.321,394.171 272.5,394C 273.658,392.991 274.325,391.658 274.5,390C 274.486,388.615 274.152,387.449 273.5,386.5C 273.5,386.167 273.5,385.833 273.5,385.5C 270.313,382.075 266.313,380.741 261.5,381.5C 261.5,381.167 261.5,380.833 261.5,380.5C 261.938,380.565 262.272,380.399 262.5,380C 261.429,379.148 260.429,378.315 259.5,377.5 Z"/></g>
<g><path style="opacity:0.922" fill="#535563" d="M 111.5,379.5 C 111.5,380.167 111.833,380.5 112.5,380.5C 111.694,381.728 110.694,382.728 109.5,383.5C 105.991,386.239 104.657,389.906 105.5,394.5C 105.167,394.5 104.833,394.5 104.5,394.5C 104.5,392.5 104.5,390.5 104.5,388.5C 105.694,384.637 108.027,381.637 111.5,379.5 Z"/></g>
<g><path style="opacity:0.996" fill="#5e4269" d="M 152.5,380.5 C 154.736,383.967 156.736,387.634 158.5,391.5C 158.167,391.5 157.833,391.5 157.5,391.5C 155.06,388.28 153.393,384.613 152.5,380.5 Z"/></g>
<g><path style="opacity:0.996" fill="#8be6a7" d="M 230.5,379.5 C 232.292,379.366 233.958,379.699 235.5,380.5C 242.005,381.499 248.671,381.499 255.5,380.5C 255.577,381.75 256.244,382.583 257.5,383C 262.928,383.361 268.261,384.195 273.5,385.5C 273.5,385.833 273.5,386.167 273.5,386.5C 273.335,388.827 272.669,390.993 271.5,393C 255.503,393.5 239.503,393.667 223.5,393.5C 223.336,390.813 223.503,388.146 224,385.5C 226.063,383.266 228.229,381.266 230.5,379.5 Z"/></g>
<g><path style="opacity:0.988" fill="#98cab7" d="M 112.5,380.5 C 113.487,385.305 113.821,390.305 113.5,395.5C 110.721,395.721 108.054,395.388 105.5,394.5C 104.657,389.906 105.991,386.239 109.5,383.5C 110.694,382.728 111.694,381.728 112.5,380.5 Z"/></g>
<g><path style="opacity:0.988" fill="#8ee4aa" d="M 109.5,383.5 C 110.5,383.5 111.5,383.5 112.5,383.5C 112.5,387.167 112.5,390.833 112.5,394.5C 110.833,394.5 109.167,394.5 107.5,394.5C 107.242,390.633 107.908,386.966 109.5,383.5 Z"/></g>
<g><path style="opacity:0.996" fill="#62246c" d="M 214.5,374.5 C 216.474,377.77 218.474,381.103 220.5,384.5C 224.6,380.115 229.6,377.282 235.5,376C 242.167,375.333 248.833,375.333 255.5,376C 257.058,376.21 258.391,376.71 259.5,377.5C 257.167,377.5 254.833,377.5 252.5,377.5C 251.833,377.5 251.167,377.5 250.5,377.5C 243.632,375.875 236.965,376.542 230.5,379.5C 222.788,381.682 220.122,386.515 222.5,394C 231.766,395.386 241.1,395.886 250.5,395.5C 250.5,395.833 250.5,396.167 250.5,396.5C 238.815,396.635 227.148,396.302 215.5,395.5C 216.568,394.566 217.901,394.232 219.5,394.5C 219.5,392.167 219.5,389.833 219.5,387.5C 218.258,383.345 216.258,379.678 213.5,376.5C 213.833,375.833 214.167,375.167 214.5,374.5 Z"/></g>
<g><path style="opacity:0.875" fill="#b2a5bb" d="M 104.5,388.5 C 104.5,390.5 104.5,392.5 104.5,394.5C 101.833,392.5 101.833,390.5 104.5,388.5 Z"/></g>
<g><path style="opacity:0.992" fill="#5c436d" d="M 204.5,391.5 C 205.167,392.5 205.833,393.5 206.5,394.5C 207.974,395.436 208.974,396.77 209.5,398.5C 209.5,400.167 209.5,401.833 209.5,403.5C 208.833,402.167 208.167,400.833 207.5,399.5C 207.033,396.703 205.367,395.369 202.5,395.5C 187.99,395.829 173.657,395.496 159.5,394.5C 173.504,394.667 187.504,394.5 201.5,394C 202.942,393.623 203.942,392.79 204.5,391.5 Z"/></g>
<g><path style="opacity:0.992" fill="#86338b" d="M 157.5,391.5 C 157.833,391.5 158.167,391.5 158.5,391.5C 159.404,392.209 159.737,393.209 159.5,394.5C 173.657,395.496 187.99,395.829 202.5,395.5C 169.961,396.18 137.294,396.847 104.5,397.5C 105.506,396.604 105.506,395.938 104.5,395.5C 104.5,395.167 104.5,394.833 104.5,394.5C 104.833,394.5 105.167,394.5 105.5,394.5C 108.054,395.388 110.721,395.721 113.5,395.5C 114.492,395.672 115.158,395.338 115.5,394.5C 129.5,394.5 143.5,394.5 157.5,394.5C 157.5,393.5 157.5,392.5 157.5,391.5 Z"/></g>
<g><path style="opacity:0.996" fill="#832d8b" d="M 275.5,386.5 C 275.902,389.477 276.902,392.143 278.5,394.5C 278.5,395.167 278.5,395.833 278.5,396.5C 269.167,396.5 259.833,396.5 250.5,396.5C 250.5,396.167 250.5,395.833 250.5,395.5C 250.833,395.5 251.167,395.5 251.5,395.5C 259.174,395.666 266.841,395.5 274.5,395C 275.444,392.281 275.777,389.448 275.5,386.5 Z"/></g>
<g><path style="opacity:0.8" fill="#bca0c5" d="M 104.5,395.5 C 105.506,395.938 105.506,396.604 104.5,397.5C 103.833,397.5 103.167,397.5 102.5,397.5C 102.833,396.5 103.5,395.833 104.5,395.5 Z"/></g>
<g><path style="opacity:0.996" fill="#f471d4" d="M 215.5,395.5 C 227.148,396.302 238.815,396.635 250.5,396.5C 259.833,396.5 269.167,396.5 278.5,396.5C 280.834,398.176 281.834,400.509 281.5,403.5C 280.317,404.504 278.984,405.338 277.5,406C 257.167,406.667 236.833,406.667 216.5,406C 215.29,404.961 214.29,403.794 213.5,402.5C 213.166,399.812 213.832,397.479 215.5,395.5 Z"/></g>
<g><path style="opacity:0.996" fill="#fa74d8" d="M 202.5,395.5 C 205.367,395.369 207.033,396.703 207.5,399.5C 207.822,401.722 207.155,403.556 205.5,405C 171.664,405.831 137.998,405.664 104.5,404.5C 103.314,402.126 103.314,399.792 104.5,397.5C 137.294,396.847 169.961,396.18 202.5,395.5 Z"/></g>
<g><path style="opacity:0.733" fill="#f7dbf2" d="M 209.5,398.5 C 210.167,398.5 210.833,398.5 211.5,398.5C 211.5,400.167 211.5,401.833 211.5,403.5C 210.833,403.5 210.167,403.5 209.5,403.5C 209.5,401.833 209.5,400.167 209.5,398.5 Z"/></g>
<g><path style="opacity:0.859" fill="#e6c3e6" d="M 102.5,397.5 C 102.5,399.833 102.5,402.167 102.5,404.5C 101.5,404.5 100.5,404.5 99.5,404.5C 100.895,402.307 101.895,399.974 102.5,397.5 Z"/></g>
<g><path style="opacity:0.976" fill="#641175" d="M 207.5,399.5 C 208.167,400.833 208.833,402.167 209.5,403.5C 210.167,403.5 210.833,403.5 211.5,403.5C 212.167,403.167 212.833,402.833 213.5,402.5C 214.29,403.794 215.29,404.961 216.5,406C 236.833,406.667 257.167,406.667 277.5,406C 278.984,405.338 280.317,404.504 281.5,403.5C 281.5,403.833 281.5,404.167 281.5,404.5C 281.5,405.5 281.5,406.5 281.5,407.5C 221.166,407.667 160.832,407.5 100.5,407C 101.693,405.905 103.027,405.072 104.5,404.5C 137.998,405.664 171.664,405.831 205.5,405C 207.155,403.556 207.822,401.722 207.5,399.5 Z"/></g>
<g><path style="opacity:0.98" fill="#46126b" d="M 102.5,397.5 C 103.167,397.5 103.833,397.5 104.5,397.5C 103.314,399.792 103.314,402.126 104.5,404.5C 103.027,405.072 101.693,405.905 100.5,407C 160.832,407.5 221.166,407.667 281.5,407.5C 281.5,406.5 281.5,405.5 281.5,404.5C 282.167,404.5 282.833,404.5 283.5,404.5C 285.104,405.287 285.771,406.62 285.5,408.5C 284.167,408.5 282.833,408.5 281.5,408.5C 220.166,408.667 158.832,408.5 97.5,408C 97.0426,407.586 96.7093,407.086 96.5,406.5C 97.6016,405.824 98.6016,405.158 99.5,404.5C 100.5,404.5 101.5,404.5 102.5,404.5C 102.5,402.167 102.5,399.833 102.5,397.5 Z"/></g>
<g><path style="opacity:0.506" fill="#916e9f" d="M 99.5,404.5 C 98.6016,405.158 97.6016,405.824 96.5,406.5C 96.7093,407.086 97.0426,407.586 97.5,408C 158.832,408.5 220.166,408.667 281.5,408.5C 220.001,409.665 158.335,409.832 96.5,409C 95.6198,407.644 95.2865,406.144 95.5,404.5C 96.8333,404.5 98.1667,404.5 99.5,404.5 Z"/></g>
</svg>
